<svg preserveAspectRatio="none" width="100%" height="100%" overflow="visible" style="display: block;" viewBox="0 0 218.15 207.373" fill="none" xmlns="http://www.w3.org/2000/svg">
<path id="Polygon 1" d="M14.5164 67.5973C-6.94096 42.6197 -6.01035 -3.12926 26.7528 0.169113C53.808 2.89285 78.5162 28.0732 96.8244 50.4419C106.033 61.6924 118.249 70.1352 132.278 73.9503L177.602 86.2761C197.557 91.7029 216.293 105.844 217.983 126.455C220.743 160.124 188.911 159.949 147.132 159.287C133.974 159.079 121.096 162.984 110.168 170.316L69.9142 197.322C58.9854 204.654 45.6202 210.174 33.1914 205.848C12.6928 198.711 16.7188 178.359 28.5296 154.599C41.4354 128.636 40.2902 97.5994 21.3971 75.6068L14.5164 67.5973Z" fill="currentColor"/>
</svg>
