<svg preserveAspectRatio="none" width="100%" height="100%" overflow="visible" style="display: block;" viewBox="0 0 230.92 810.01" fill="none" xmlns="http://www.w3.org/2000/svg">
<g id="4">
<path id="Vector" d="M61.3503 721.06L85.0703 688.31C111.49 651.83 130.72 612.65 152.4 573.37C170.57 540.45 182.12 506.96 192.78 471C207.66 420.81 212.33 370.72 213.31 318.37C214.72 243.35 203.23 171.26 182.21 99.35C172.16 64.97 163.48 32.9 147.52 0C164.55 15.65 170.25 36.81 177.13 57.41L195.79 113.32C235.93 233.57 243.66 359.99 208.61 482.15C197.9 519.49 185.54 554.3 167.13 588.65C140.26 638.77 110.94 685.91 71.9903 727.48C70.2803 729.3 65.0203 730.56 63.3303 729.45C61.6403 728.34 59.9303 723.05 61.3703 721.06H61.3503Z" fill="currentColor"/>
<path id="Vector_2" d="M5.96032 798.97C-1.78968 757.31 -4.51968 718.81 13.7103 680.24C14.9503 677.61 21.4703 674.44 24.2403 674.64C38.5803 675.69 39.4703 718.37 37.9703 732.8L33.5403 775.26C56.9403 759.85 77.9603 750.39 103.42 744.56C112.88 742.4 135.22 736.53 140.93 743.57C141.71 744.53 139.58 748.22 138.12 748.7L112.09 757.21C76.8503 768.73 46.0903 788.95 16.1603 810.01C11.6503 808.55 6.75032 803.18 5.96032 798.98V798.97Z" fill="currentColor"/>
</g>
</svg>
