<svg preserveAspectRatio="none" width="100%" height="100%" overflow="visible" style="display: block;" viewBox="0 0 273.452 658.508" fill="none" xmlns="http://www.w3.org/2000/svg">
<g id="8">
<path id="Vector" d="M51.4755 42.5737L5.80541 23.6237C3.57541 22.6937 -0.274507 17.9037 0.0154928 15.5237C0.965493 7.8337 18.9355 1.80369 27.5255 0.79369C44.9855 -1.25631 62.4554 0.653676 79.2154 6.65368C152.415 32.8937 208.015 87.9437 239.465 159.234C269.675 227.724 280.225 302.284 269.185 376.514C258.085 451.114 219.485 546.964 162.925 598.724C161.065 600.424 155.475 601.644 153.705 600.284C151.645 598.694 150.425 591.594 151.895 589.204L181.135 541.914C196.515 517.034 206.846 491.464 214.576 463.414C221.976 436.544 228.315 410.684 231.525 382.824C239.615 312.654 227.465 243.974 198.385 179.484C186.075 152.194 171.906 126.784 150.036 106.024C121.536 78.9837 88.4255 57.8937 51.4855 42.5637L51.4755 42.5737Z" fill="currentColor"/>
<path id="Vector_2" d="M103.965 560.194C108.355 549.174 119.956 543.104 128.826 549.294C149.166 563.484 141.445 593.714 136.895 615.324C163.305 609.564 188.175 604.044 210.925 611.164C212.575 622.134 203.595 628.394 193.995 628.124C130.585 626.324 121.365 670.534 97.4454 655.314C90.0754 624.104 91.9354 590.404 103.975 560.194H103.965Z" fill="currentColor"/>
</g>
</svg>
