<svg preserveAspectRatio="none" width="100%" height="100%" overflow="visible" style="display: block;" viewBox="0 0 121.855 447.723" fill="none" xmlns="http://www.w3.org/2000/svg">
<path id="15" d="M75.6616 58.3824L23.2216 9.4725L9.69158 75.1025L26.4716 74.9924C22.1216 80.8724 32.3615 92.9424 37.4815 115.262C59.3415 210.542 52.5815 307.892 23.1515 400.192C20.7215 407.822 21.3316 422.562 27.6916 427.002C43.4916 438.022 70.8616 441.302 86.8016 429.312C97.4516 421.302 99.3116 403.972 101.322 391.212C118.142 284.182 106.612 176.652 71.6315 74.6825C94.6815 114.472 105.722 156.802 113.672 201.712C126.482 274.012 124.122 347.702 107.512 418.322C99.6415 451.802 62.2516 450.332 36.3116 444.392C22.4516 441.212 11.8215 430.352 10.9015 415.442C10.2715 405.222 11.5915 394.172 14.9115 383.792C40.2515 304.662 45.2016 222.152 30.8516 139.862C27.4616 120.412 24.8115 102.582 22.8615 81.8425C17.5215 84.5025 10.8915 87.6025 6.4815 86.6725C1.2815 85.5725 -0.858426 77.4024 0.311574 71.7624L13.6315 8.03244C14.1815 5.40244 17.4516 0.402451 19.9316 0.0424507C22.4116 -0.317549 28.1916 1.68242 30.0816 3.38242L80.3116 48.4425C83.2516 51.0825 88.2116 58.8225 86.1016 62.1025C82.0516 68.3925 71.8615 69.2724 65.0015 67.9124L75.6315 58.3924L75.6616 58.3824Z" fill="currentColor"/>
</svg>
