<svg preserveAspectRatio="none" width="100%" height="100%" overflow="visible" style="display: block;" viewBox="0 0 445.913 485.199" fill="none" xmlns="http://www.w3.org/2000/svg">
<g id="21">
<path id="Vector" d="M445.913 57.01V62.15C436.193 80.16 376.353 92.38 371.223 73.99C366.893 58.46 400.494 50.92 411.644 44.97L399.473 18.24C396.673 12.08 396.104 3.96 403.754 0C409.674 4.07 416.383 12.21 421.183 19.5L445.913 57.01Z" fill="currentColor"/>
<path id="Vector_2" d="M371.693 270.75C342.953 210.58 291.954 187.39 226.374 198.05C194.884 203.17 166.643 223.75 157.113 254.02C147.893 283.3 157.093 313.17 183.833 327.85C192.803 332.78 202.153 336.16 210.683 343.44C168.793 345.77 140.534 307.76 146.124 267.63C152.104 224.71 187.383 194.5 229.853 187.48C263.933 181.85 297.733 183.05 328.293 201.03C365.233 222.75 391.943 260.8 397.683 303.89C403.773 349.56 386.054 393.3 356.034 426.7C335.584 449.46 310.733 464.67 281.443 473.87C220.563 492.99 146.783 489.77 93.6734 449.81C59.0534 423.76 30.7835 389.4 15.6435 348.52C-15.0665 265.57 0.383446 175.87 53.6934 106.36C77.1534 75.77 104.593 50.71 139.953 34.17C186.053 12.61 269.003 0.960055 318.953 10.2001C336.913 13.5201 381.393 26.73 394.463 36.8C395.563 37.65 394.394 43.37 392.534 42.81C375.774 37.7 352.634 27.93 332.754 27.16C288.734 25.46 246.713 27.93 203.963 35.74C173.143 41.37 144.293 50.9701 119.293 69.4601C27.3134 137.51 -12.0365 258.58 42.4735 363.65C53.7235 385.34 69.3535 403.56 86.5335 420.39C136.134 468.99 201.073 474.03 266.163 457.55C321.873 443.45 365.734 400.31 378.904 344.27C384.884 318.8 382.743 293.88 371.703 270.76L371.693 270.75Z" fill="currentColor"/>
</g>
</svg>
