<svg preserveAspectRatio="none" width="100%" height="100%" overflow="visible" style="display: block;" viewBox="0 0 378.488 304.692" fill="none" xmlns="http://www.w3.org/2000/svg">
<path id="11" d="M211.16 155.233C141.83 209.233 122.22 278.083 101.57 302.343C97.32 307.333 86.58 303.373 81.8 299.693C53.52 277.933 5.97 238.573 0 202.273C7.94 160.603 47.22 122.663 79.45 96.863C125.55 61.623 181 42.9129 241.5 46.0229C238.01 36.3229 231.1 10.823 240.55 3.47302C251.46 -5.00698 272.45 4.33301 280.51 7.33301C310.7 18.553 340.18 27.193 369.25 40.743C373.22 42.593 377.92 48.223 378.41 51.693C379.02 55.993 375.97 61.6029 372.59 65.0029C332.34 105.433 318.72 162.203 295.5 162.313C271.93 162.423 267.11 111.663 249.92 125.043L211.17 155.223L211.16 155.233Z" fill="currentColor"/>
</svg>
