<svg preserveAspectRatio="none" width="100%" height="100%" overflow="visible" style="display: block;" viewBox="0 0 402.739 711.671" fill="none" xmlns="http://www.w3.org/2000/svg">
<g id="19">
<path id="Vector" d="M362.349 23.51C281.939 106.42 225.249 204.22 197.329 314.68C184.969 363.56 180.039 411.21 184.159 461.63C188.759 517.88 200.009 571.74 215.369 626.08C217.269 632.81 217.699 640.42 217.679 648.52C187.969 585.17 169.069 517.76 163.059 447.36C158.699 396.26 164.469 347.58 178.949 298.54C198.459 232.43 228.779 171.13 270.739 116.16C297.469 81.15 325.559 47.99 362.359 23.52L362.349 23.51Z" fill="currentColor"/>
<path id="Vector_2" d="M288.429 23.49C307.879 15.4 322.939 3.53 343.469 0C251.009 54.42 172.289 120.77 117.019 213.67C78.0891 279.12 50.7191 349.66 40.7591 425.05C38.3491 443.31 39.8691 460.33 33.4791 479.21C25.9291 451.7 30.9291 424.12 33.9791 396C39.4091 345.98 52.3491 299.45 72.2591 253.34C116.329 151.29 182.309 88.36 276.369 30.86L288.419 23.49H288.429Z" fill="currentColor"/>
<path id="Vector_3" d="M402.739 51.86L372.939 102.52C316.969 197.68 283.499 374.96 336.389 482.74C341.189 492.53 346.209 500.58 348.139 511.91C314.729 469.1 295.899 418.78 293.559 363.26C289.809 274.25 312.939 185.94 357.159 108.71C364.469 95.93 391.089 55.09 402.739 51.86Z" fill="currentColor"/>
<path id="Vector_4" d="M221.429 682.17C224.449 662.47 236.009 624.17 258.599 627.36C264.259 628.16 270.849 636.05 271.599 642.47C274.059 663.48 263.359 679.91 249.279 695.18C244.069 700.84 236.269 715.59 226.019 710.69C206.409 701.32 182.959 667.33 188.289 660.81C189.799 658.95 196.889 656.85 199.349 657.81C207.839 661.12 215.789 672.62 221.429 682.19V682.17Z" fill="currentColor"/>
<path id="Vector_5" d="M34.7291 499.73C44.5791 488.4 73.4991 461.77 87.5391 471.62C108.139 486.07 59.5291 529.15 33.3891 526.55C24.7591 521.81 -8.25089 484.63 1.92911 474.96C10.6191 466.71 27.8391 489.19 34.7291 499.74V499.73Z" fill="currentColor"/>
<path id="Vector_6" d="M352.449 524.68C355.959 513.05 362.189 482.53 377.859 484.4C391.389 486.01 394.589 523.45 375.659 548.88C369.799 556.76 358.399 556.76 351.509 551.01C345.089 545.65 324.079 528.21 331.589 520.02C333.799 517.62 340.209 517.12 342.899 518.78L352.459 524.68H352.449Z" fill="currentColor"/>
</g>
</svg>
