<svg preserveAspectRatio="none" width="100%" height="100%" overflow="visible" style="display: block;" viewBox="0 0 354.686 348.83" fill="none" xmlns="http://www.w3.org/2000/svg">
<g id="10">
<path id="Vector" d="M129.459 301.659C118.259 321.569 102.669 356.379 78.3793 347.369C56.5593 339.279 35.4594 328.119 17.7894 313.639C1.47935 300.259 -3.29065 282.399 2.14935 262.489C16.8294 208.729 47.8794 163.009 90.4494 127.129C124.099 98.7691 159.719 76.579 199.689 57.869C202.939 56.349 209.179 50.659 212.129 47.699C216.729 43.089 200.759 33.3091 205.539 18.7591C213.329 -4.93094 297.589 0.399056 321.739 0.759056C324.989 0.809056 348.689 6.05906 352.909 15.8891C354.869 20.4591 355.559 30.119 353.149 34.919L313.049 114.889C308.459 124.039 297.809 137.689 287.029 135.709C278.189 133.519 270.239 121.959 259.049 129.789C243.849 140.419 230.339 153.369 218.539 168.539C185.469 211.029 155.879 254.739 129.459 301.669V301.659ZM86.4094 332.959C93.1394 329.109 99.2494 321.929 102.749 315.449C133.729 258.039 193.869 154.189 246.349 118.239C260.479 108.559 275.389 108.919 290.799 117.459L335.659 33.6291C336.949 31.2291 338.609 25.409 337.209 23.489C329.819 13.329 245.089 21.809 228.759 23.999C226.229 24.339 220.939 28.049 221.659 29.929L224.259 36.7591C225.589 40.2591 227.339 48.2691 225.839 51.8991C224.459 55.2391 218.689 58.829 214.509 60.729C200.109 67.279 188.389 74.379 175.739 83.499C136.359 111.879 99.1894 141.409 68.3094 179.309C46.5894 205.969 32.4794 236.329 18.6294 267.469C12.7694 280.649 16.7594 292.009 28.0294 301.219C44.9394 315.059 64.3094 325.069 86.4194 332.969L86.4094 332.959Z" fill="currentColor"/>
<path id="Vector_2" d="M44.0194 267.409L32.6994 285.649C40.7894 203.719 130.479 115.759 201.439 81.839C210.379 77.569 219.309 75.089 229.149 76.619C222.329 87.099 212.539 91.159 202.389 97.079C132.419 137.939 80.7494 193.839 44.0194 267.399V267.409Z" fill="currentColor"/>
</g>
</svg>
