<svg preserveAspectRatio="none" width="100%" height="100%" overflow="visible" style="display: block;" viewBox="0 0 335.908 740.24" fill="none" xmlns="http://www.w3.org/2000/svg">
<g id="9">
<path id="Vector" d="M234.48 222.416C226.54 266.596 190.85 308.846 146.86 301.026C126.26 297.366 110.26 278.856 114.76 257.886C124.31 213.396 165.67 186.196 212.79 193.236C202.83 126.626 129.69 45.8264 68.3201 26.6864L0 5.38641C2.37 2.90641 6.88999 0.156407 9.48999 0.0864069C46.29 -0.893593 80.9202 6.40641 112.95 24.8564C172.58 59.2064 225.7 129.276 234.74 198.906C256.41 209.256 274.51 224.016 288.91 243.546C329.55 298.666 360.31 393.436 309 452.626C315.47 468.306 319.36 483.116 318.86 499.566C316.8 568.066 275.93 624.456 225.25 667.046C199.9 688.346 171.07 701.896 138.46 708.126C128.46 710.036 119.46 710.646 110.01 705.126C149.55 692.926 169.81 697.206 206.63 671.226C260.35 633.316 308.87 572.326 309.37 503.296C309.48 488.716 308.02 474.046 300.08 461.276C270.17 489.186 209.43 500.246 184.02 472.166C173.84 460.916 171.43 445.966 179.07 433.116C194.52 407.096 224.94 397.866 254.01 405.716C273.11 410.876 287.68 422.976 300.92 439.526C353.34 384.036 292.93 253.866 234.47 222.406L234.48 222.416ZM186.44 436.896C180.31 446.576 182.6 458.536 190.27 466.086C215.17 490.626 270.87 473.076 293.57 448.306C282.57 430.566 266.74 419.106 248.04 414.346C224.51 408.346 200.14 415.256 186.44 436.896ZM126.86 261.236C125.49 273.536 133.65 281.386 143.57 283.986C179.18 293.336 217.69 246.896 214.14 214.256C181.45 201.016 131.66 218.176 126.87 261.236H126.86Z" fill="currentColor"/>
<path id="Vector_2" d="M76.9001 673.236C88.9001 670.686 130.27 661.436 133.1 671.586C133.7 673.726 131.87 678.786 129.94 680.036L112.66 691.226C104.17 696.716 101.73 706.006 105.92 715.416L116.58 739.326C112.57 740.536 105.32 740.956 99.9501 737.946C87.6801 731.046 35.49 698.666 37.82 685.746C38.17 683.816 41.86 680.676 44.09 680.206L76.8801 673.246L76.9001 673.236ZM110.93 677.636L50.6801 690.406C67.0101 706.416 82.4499 717.186 100.75 729.036C97.8799 718.346 93.45 709.536 94.51 700.356C95.69 690.096 105.51 686.266 110.94 677.636H110.93Z" fill="currentColor"/>
</g>
</svg>
