<svg preserveAspectRatio="none" width="100%" height="100%" overflow="visible" style="display: block;" viewBox="0 0 163.657 599.665" fill="none" xmlns="http://www.w3.org/2000/svg">
<path id="3" d="M35.7572 261.078L32.6071 50.2577L32.1771 3.24771C37.7571 0.647714 43.9571 -0.132297 50.7671 0.0177033C89.1871 0.867703 125.267 1.90769 163.657 7.87769L150.237 104.988L114.707 330.278L96.1972 436.238L144.827 441.058C144.887 442.698 144.237 448.198 143.147 450.288L67.6071 594.288C66.2271 596.918 63.9371 599.918 62.1571 599.648C60.3771 599.378 56.8571 596.448 56.2171 594.698L1.89711 446.828C0.147107 442.068 -0.642862 436.268 0.617138 432.098L29.5471 431.908L36.7471 433.058C38.8971 433.398 41.4571 426.918 41.2971 424.428C37.7771 369.348 36.6072 317.358 35.7572 261.078ZM66.5371 547.908L130.107 449.908L23.7971 444.918L66.5471 547.908H66.5371ZM47.0471 432.888L92.5072 436.248L98.2171 399.908C113.597 271.458 131.177 144.768 152.217 14.5477C114.987 14.1577 81.5971 12.2277 44.1571 8.90769L45.4472 166.698L48.2671 316.828L47.0571 432.888H47.0471Z" fill="currentColor"/>
</svg>
