<svg preserveAspectRatio="none" width="100%" height="100%" overflow="visible" style="display: block;" viewBox="0 0 323.306 655.31" fill="none" xmlns="http://www.w3.org/2000/svg">
<g id="7">
<path id="Vector" d="M61.7508 90.5506L86.1408 51.8107C110.061 26.6107 154.411 -10.7093 196.051 2.90065C151.191 12.0107 116.081 37.9507 93.4309 77.2507C48.0609 155.961 47.7609 253.241 91.1809 334.591C142.401 282.051 200.641 246.361 269.201 289.291C310.121 314.961 330.401 360.671 321.061 407.631C314.971 438.231 291.861 460.371 260.981 465.781C194.951 477.371 120.101 420.601 83.1508 364.521C60.0708 392.041 47.3508 424.901 42.0808 459.901C36.6208 496.111 34.0308 532.171 38.2308 568.441L44.5208 622.721C33.8408 616.171 30.5809 605.781 28.3209 594.471C19.7509 551.591 22.0608 509.021 27.5208 465.541C32.8308 423.201 48.1808 384.881 76.3308 352.101C61.6808 328.281 53.8309 304.561 46.5509 278.881C28.3709 214.811 38.3408 151.081 61.7508 90.5406V90.5506ZM97.5008 346.771C126.961 396.051 188.111 455.331 244.461 457.151C276.391 457.351 303.071 437.861 309.431 406.201C319.121 357.971 292.351 311.591 247.251 292.021C220.621 279.601 192.391 280.061 165.881 292.621C140.001 305.541 118.171 323.381 97.5008 346.771Z" fill="currentColor"/>
<path id="Vector_2" d="M2.77089 611.871C11.6609 600.581 36.5509 622.171 48.5509 632.791L58.8308 602.281C59.7208 599.651 64.1709 596.241 66.6309 595.861C69.3109 595.451 73.1509 602.451 72.0709 605.231C67.1709 617.861 55.1509 648.861 45.5409 653.731C31.3909 660.891 6.50093 642.541 0.190931 622.141C-0.619069 619.521 1.32089 613.711 2.77089 611.871Z" fill="currentColor"/>
</g>
</svg>
