<svg preserveAspectRatio="none" width="100%" height="100%" overflow="visible" style="display: block;" viewBox="0 0 149.843 636.958" fill="none" xmlns="http://www.w3.org/2000/svg">
<g id="1">
<path id="Vector" d="M68.0378 528.39C67.9278 535.29 61.7378 541.88 56.6378 540.07L57.6478 491.56C58.1578 467.34 54.7078 442.65 59.4178 419.41C62.0978 406.19 76.4078 397.73 84.8178 389.16L127.318 345.83C106.438 330.08 56.9478 305.44 51.3678 286.67C50.2478 282.89 53.1478 274.45 56.9378 271.67L136.328 213.54C113.408 192.22 92.3278 172.49 73.5578 150.04C67.1978 142.43 66.2278 132.41 71.6078 124.76L134.358 67.9496L103.868 42.3396L64.6878 8.79956C63.4678 7.74956 62.4578 3.63956 62.1378 2.37956C61.7478 0.819562 67.4978 -0.780445 69.0278 0.419555L136.628 53.4996C142.358 57.9996 149.728 67.8296 143.058 74.8596C125.118 93.7796 103.268 113 83.9178 130.14C81.5778 132.21 81.0278 140.01 82.8278 141.96C102.468 163.27 122.228 182.41 143.398 201.66C146.828 204.78 150.278 211.45 149.798 215.27C149.198 220.09 144.378 224.59 139.998 227.67L121.908 240.39L68.5578 278.82C67.0178 279.93 63.8778 283.53 64.5878 285.16C65.2978 286.79 67.9778 290.74 69.8778 291.98L129.908 331.33C133.898 333.95 138.588 337.89 139.768 341.53C140.948 345.17 138.418 353.24 134.908 356.71L73.0178 417.86C70.2878 420.56 69.6678 429.64 69.6078 433.23L68.0478 528.4L68.0378 528.39Z" fill="currentColor"/>
<path id="Vector_2" d="M0.21779 545.18C-0.90221 540.04 2.51779 532.69 5.44779 531.2C23.6278 521.96 52.6478 568.67 65.5278 583.87L105.878 532.63C111.018 526.1 119.138 521.81 126.958 520.87C126.958 526.67 123.818 529.1 121.728 533.31C119.398 538.02 117.058 542.72 114.728 547.43C109.538 557.89 104.348 568.35 99.1678 578.8C98.7778 580.35 97.5678 582.03 96.8478 583.47L94.2378 588.72C92.4978 592.22 90.7678 595.72 89.0278 599.22C84.9578 607.42 81.4078 615.93 77.1378 624.02C73.8378 630.26 69.0378 636.28 61.4978 636.93C57.1978 637.3 50.1378 634.03 46.4378 630.34C23.3778 607.33 7.5178 578.72 0.207796 545.19L0.21779 545.18Z" fill="currentColor"/>
</g>
</svg>
