<svg preserveAspectRatio="none" width="100%" height="100%" overflow="visible" style="display: block;" viewBox="0 0 214.375 429.63" fill="none" xmlns="http://www.w3.org/2000/svg">
<g id="12">
<path id="Vector" d="M182.545 426.369C165.215 428.379 149.305 428.649 132.565 428.779L23.5846 429.629C16.1246 429.689 7.16458 425.509 3.29458 419.629C-0.0254233 414.589 -0.895389 405.749 0.954611 398.069L57.8747 161.889L62.2746 144.639C44.3946 142.749 26.8546 141.539 9.10464 140.999C7.06464 140.939 3.0246 138.719 2.1946 136.989C1.2046 134.919 1.4846 128.619 2.8146 126.539C28.1446 86.9691 56.8645 51.5791 89.3845 17.7691C96.2545 10.6291 105.315 2.14904 114.675 0.319041C126.865 -2.07096 137.325 9.4291 143.455 19.3791L212.755 131.839C214.605 134.829 214.865 141.689 213.565 144.419C212.265 147.149 206.185 150.529 203.075 150.549L152.625 150.879L159.125 173.539L182.765 286.009L204.485 379.149C208.855 397.899 206.855 423.539 182.535 426.359L182.545 426.369ZM123.575 134.779L197.925 137.159C179.835 120.929 163.895 105.949 149.915 86.4991L121.245 46.6091C119.085 44.7291 115.975 41.4291 114.125 42.1791C112.645 42.7791 109.095 45.4291 107.945 46.6591L28.6345 131.519L123.575 134.769V134.779ZM36.2846 404.329L155.415 398.839C161.175 398.569 167.235 397.309 171.925 394.909C152.745 312.219 136.445 231.999 122.305 149.149L67.0246 145.659C59.6046 197.359 50.4946 243.179 40.6746 292.299L15.9546 400.949C21.5646 406.629 28.5546 404.699 36.2946 404.339L36.2846 404.329Z" fill="currentColor"/>
<path id="Vector_2" d="M54.2346 374.429C52.7446 371.309 51.6146 366.139 52.0646 362.189L69.7545 208.359C71.4745 193.419 71.1145 179.109 78.7745 163.779C88.5445 184.299 84.6246 205.939 81.7146 227.269C74.9146 277.209 67.8946 325.359 54.2346 374.429Z" fill="currentColor"/>
</g>
</svg>
