<svg preserveAspectRatio="none" width="100%" height="100%" overflow="visible" style="display: block;" viewBox="0 0 201.833 471.121" fill="none" xmlns="http://www.w3.org/2000/svg">
<path id="18" d="M201.106 432.96C204.746 440.31 193.866 450.59 187.626 453.54C160.066 466.55 130.805 471.1 100.065 471.12C85.9255 471.13 68.5254 471.04 56.4354 462.75C35.3354 448.3 22.9556 425.66 14.8956 401.01C-12.7244 316.55 -2.11459 214.09 48.2354 139.52C35.8354 133.29 25.7854 127.83 16.7254 118.8C25.4654 120.21 32.0355 121.65 39.3555 124.06C83.6055 138.69 127.705 149.57 176.535 153.71C152.795 104.04 137.455 72.1301 135.235 14.0801C101.505 39.2401 70.8355 62.9401 41.8355 90.0701C32.9555 98.3801 28.7955 110.02 17.8355 117.25C23.1755 77.0601 104.355 21.9801 136.245 1.39013C137.385 0.660125 141.035 -0.00988946 142.315 0.000110539C148.715 0.0801105 141.155 14.74 146.745 35.9C155.195 67.89 168.186 96.7101 181.586 127L194.435 156.06C195.565 158.61 192.866 166.07 190.856 167.05C163.606 170.37 159.755 168.22 129.005 164.22C120.015 231.34 144.316 333.77 177.606 391.82C185.466 405.53 193.636 417.83 201.116 432.95L201.106 432.96ZM185.955 432.98C134.375 376.09 99.0755 230.31 121.525 162.76C97.0555 157.33 76.9954 151.19 54.2254 142.83L41.2755 178.67C23.2155 228.66 16.3255 279.68 20.1155 332.7C22.8855 371.57 33.1454 406.65 51.9354 440.48C58.3054 451.95 65.0255 460.7 80.5855 458.82C111.846 455.04 155.825 449.34 185.955 432.97V432.98Z" fill="currentColor"/>
</svg>
