<svg preserveAspectRatio="none" width="100%" height="100%" overflow="visible" style="display: block;" viewBox="0 0 154.275 840.832" fill="none" xmlns="http://www.w3.org/2000/svg">
<g id="5">
<path id="Vector" d="M124.378 0.595533C147.688 -6.22447 154.018 47.4055 149.278 65.7255C143.658 87.4255 124.078 101.826 104.108 110.076L63.3379 126.916C55.9479 129.966 48.8079 139.296 47.0779 145.476C39.1079 173.906 74.2879 196.216 95.4679 209.796L123.118 227.526C135.898 235.726 149.398 247.586 152.648 262.686C162.048 306.356 129.208 327.036 93.0779 338.246C72.2279 344.716 18.1179 354.506 30.5779 384.906C50.5979 433.726 120.578 447.446 145.298 489.246C152.278 501.046 155.328 515.666 149.258 528.016C126.448 574.436 52.398 552.506 18.128 582.006C5.70795 592.696 6.27798 609.186 16.408 621.646C37.518 647.576 62.5779 655.126 88.2979 679.516C116.708 706.456 127.338 759.766 91.7079 781.606C109.528 759.446 111.858 731.266 97.7279 705.256C77.7179 668.446 34.8179 661.686 7.91787 624.856C-6.18213 605.556 -0.892078 581.856 19.3479 569.956C53.4379 549.906 86.0279 559.486 120.698 543.176C133.978 536.926 145.158 523.706 142.798 509.176C139.918 491.396 127.298 477.056 112.198 467.966L49.9679 430.476C32.6779 420.056 19.0379 405.026 13.0879 386.106C-7.90209 319.366 124.898 334.586 132.218 282.356C136.298 253.276 107.788 241.346 83.2879 225.976C55.5179 208.546 25.8679 186.086 25.9679 150.616C26.0679 117.906 60.9179 103.096 87.0579 93.5155C118.548 81.9855 139.808 62.3455 131.058 27.3755L124.358 0.595533H124.378Z" fill="currentColor"/>
<path id="Vector_2" d="M50.0779 779.106C53.1279 772.846 60.2679 773.646 65.8079 775.686C74.2879 778.806 81.9179 784.406 88.9479 789.976C92.9179 793.116 96.8579 796.556 100.618 800.036C102.608 801.876 104.608 803.726 106.588 805.586C108.318 807.216 110.678 808.886 111.738 811.076C112.528 812.696 109.878 813.865 108.798 814.355C106.428 815.425 103.908 816.206 101.488 817.186C88.1179 822.626 75.0479 828.775 61.4879 833.745L61.4479 833.766C53.9579 836.506 46.1279 839.526 38.1679 840.576C36.5679 840.786 33.9779 841.226 32.6179 840.046C24.2479 832.776 44.8279 789.946 50.0879 779.126L50.0779 779.106ZM51.648 818.296C51.648 818.296 51.6979 818.356 51.7279 818.386C51.9579 818.596 52.3079 818.556 52.6179 818.506C59.7779 817.306 66.7578 815.206 73.7878 813.396C77.2378 812.506 80.8679 811.676 84.4179 810.916C86.2779 810.516 88.1479 810.125 90.0079 809.745C90.8379 809.575 94.1379 809.466 94.2179 808.226C94.2479 807.766 93.8279 807.406 93.4479 807.146C88.6279 803.726 83.7979 800.306 78.7579 797.216C73.7179 794.126 68.5379 790.946 62.8579 789.756C62.3379 789.646 61.7978 789.556 61.2878 789.676C60.6378 789.826 60.108 790.306 59.658 790.806C58.498 792.116 57.6779 793.686 56.9279 795.276C54.4479 800.576 52.6979 806.206 51.7379 811.976C51.4179 813.886 51.1879 815.846 51.4679 817.756C51.4979 817.946 51.538 818.146 51.648 818.296Z" fill="currentColor"/>
</g>
</svg>
