<svg preserveAspectRatio="none" width="100%" height="100%" overflow="visible" style="display: block;" viewBox="0 0 106.387 589.254" fill="none" xmlns="http://www.w3.org/2000/svg">
<g id="2">
<path id="Vector" d="M57.0604 528.223C47.1704 529.063 46.4704 495.123 46.0104 488.873C43.7704 458.093 47.8004 427.553 49.1704 396.833L54.3404 281.413C54.3404 281.413 59.3904 67.1826 59.3904 67.0726C59.8104 49.2926 58.9904 30.7226 61.4604 13.0926C61.8904 10.0526 62.7604 2.7926 65.2904 0.792598C71.8404 -4.3574 68.9504 17.1726 68.7304 19.8526C65.3504 60.1426 68.4704 101.133 70.9604 141.403C73.2404 178.183 73.6204 212.753 73.9504 249.823C74.6304 326.513 73.1504 403.293 66.7004 479.743C65.8204 490.223 64.5004 500.653 63.5104 511.113C63.0804 515.703 63.6204 526.913 57.5004 528.153C57.3504 528.183 57.2004 528.203 57.0504 528.223H57.0604Z" fill="currentColor"/>
<path id="Vector_2" d="M31.2604 571.373C24.3904 565.593 17.8504 559.403 11.5704 552.983C7.41041 548.723 3.25039 544.203 1.18039 538.623C-0.889605 533.043 -0.389573 526.103 3.90043 521.973C8.15043 517.883 14.9904 517.603 20.4904 519.733C25.9904 521.863 30.4504 525.943 34.7804 529.953C41.9904 536.623 49.1904 543.283 56.4004 549.953C69.9704 536.433 83.5304 522.913 97.1004 509.393C98.9204 507.573 101.65 505.633 103.8 507.053C110.75 511.613 101.78 527.613 99.1904 532.583C92.4704 545.453 83.5404 556.643 75.4404 568.633C72.6204 572.813 69.7304 576.943 66.7604 581.013C64.7404 583.783 62.1704 589.163 58.2404 589.253C55.6904 589.313 52.8404 587.293 50.8104 585.973C43.9904 581.533 37.4904 576.633 31.2704 571.393L31.2604 571.373Z" fill="currentColor"/>
</g>
</svg>
