<svg preserveAspectRatio="none" width="100%" height="100%" overflow="visible" style="display: block;" viewBox="0 0 172.966 561.315" fill="none" xmlns="http://www.w3.org/2000/svg">
<g id="14">
<path id="Vector" d="M171.963 499.898C174.513 521.938 174.293 560.878 145.143 561.268C103.073 561.828 60.3732 557.358 19.5432 547.208C5.0532 543.608 -1.48681 531.499 0.283189 518.559L14.9032 411.939C26.4132 328.019 37.0433 246.258 53.8733 162.238L19.7233 157.908C24.2233 142.908 29.6633 125.858 37.9933 109.958C55.6233 76.3084 69.7633 42.4085 82.9933 6.66851C83.8533 4.34851 88.8432 0.358495 91.0732 0.0284951C93.6732 -0.361505 98.2932 3.32849 98.9332 6.39849C105.803 39.4685 116.203 70.0085 129.553 101.169L150.013 148.939C151.403 152.179 149.673 159.818 147.673 162.268C145.673 164.718 139.483 165.809 135.793 165.569L130.943 165.258C126.983 165.008 135.823 189.169 137.633 204.689L158.373 382.478L171.953 499.898H171.963ZM137.493 151.278L114.533 98.7184L90.7132 34.7985L56.4432 114.588C50.7732 127.788 40.1232 139.088 30.8232 151.588L137.493 151.278ZM146.803 441.429L126.113 272.948L116.663 177.368L115.643 164.059L58.2932 162.268L48.5832 249.608L29.8533 421.148L18.8332 514.309C18.3432 518.489 17.0632 522.709 17.6632 525.409C20.7232 539.029 128.203 545.628 147.023 544.458C163.913 541.218 148.883 458.339 146.813 441.419L146.803 441.429Z" fill="currentColor"/>
<path id="Vector_2" d="M45.0533 486.508C43.2833 480.178 43.9933 474.358 44.3533 467.298L55.5033 247.498C55.9933 237.858 63.1833 177.868 64.3533 178.408L69.5033 180.798C69.5233 231.918 65.3133 282.028 60.5033 333.698C55.6933 385.298 52.6233 434.848 45.0533 486.508Z" fill="currentColor"/>
<path id="Vector_3" d="M124.313 521.248C118.653 516.658 117.943 455.208 122.253 450.858C131.963 473.188 131.993 497.288 124.313 521.248Z" fill="currentColor"/>
<path id="Vector_4" d="M119.743 432.388C115.323 410.408 109.733 374.678 113.843 354.218C121.643 380.238 123.713 406.418 119.743 432.388Z" fill="currentColor"/>
<path id="Vector_5" d="M113.473 297.548L115.033 325.248C112.513 322.458 111.333 317.718 110.873 313.328C108.513 290.738 102.343 269.308 105.603 244.608C108.873 260.808 112.403 278.618 113.473 297.548Z" fill="currentColor"/>
</g>
</svg>
