<svg preserveAspectRatio="none" width="100%" height="100%" overflow="visible" style="display: block;" viewBox="0 0 95.6312 553.317" fill="none" xmlns="http://www.w3.org/2000/svg">
<path id="16" d="M22.289 396.76C21.379 444.93 18.409 488.38 13.069 538.01L79.489 541.64C83.889 541.88 86.329 530.96 85.909 526.87L72.8291 398.48C63.1991 304.01 62.199 210.58 61.119 115.83C61.039 108.49 63.399 98.48 66.619 93.88L86.4691 86.8C78.4891 58.15 68.9691 33.97 54.2091 6.77002C49.5491 9.72002 46.579 13.55 44.169 18.3L6.60896 92.26L19.249 98.05C14.619 102.83 3.21902 101.74 0.549024 96.34C-1.05098 93.09 1.18899 85.8801 2.88899 82.6801L21.119 48.34C29.779 32.04 38.089 15.51 48.529 0C54.229 0.06 60.769 4.38001 63.379 9.76001C75.109 33.87 85.899 59.5 94.369 84.3C95.479 87.54 93.959 94.08 92.239 96.14C86.659 102.84 75.069 100.68 72.679 104.97C71.529 107.03 71.729 111.35 71.879 115.2L81.539 359.28L94.309 501.23C95.369 513.06 95.9291 524.38 95.4691 535.95C95.0591 546.33 85.659 553.57 75.549 553.31L16.539 551.79C6.80902 551.54 -0.270995 543.31 0.779005 533.42C15.769 392.44 8.00897 252.79 21.739 108.7C26.989 152.53 26.099 195.49 25.259 239.67L22.279 396.74L22.289 396.76Z" fill="currentColor"/>
</svg>
