<svg preserveAspectRatio="none" width="100%" height="100%" overflow="visible" style="display: block;" viewBox="0 0 300.783 698.267" fill="none" xmlns="http://www.w3.org/2000/svg">
<g id="6">
<path id="Vector" d="M208.973 0.0243036C237.643 -0.555696 288.983 9.1143 300.783 43.1643C271.743 31.6743 241.613 28.7343 209.113 34.1743C154.843 43.2543 108.513 71.5743 77.7634 118.054C-1.84657 238.374 20.3134 410.024 77.7134 536.054C86.2334 554.774 96.1034 573.444 107.323 590.924C113.073 599.894 119.213 608.614 125.783 617.004C131.753 624.634 139.603 631.374 143.473 640.424C144.833 643.604 145.213 648.614 140.823 647.704C137.523 647.014 134.913 643.274 132.643 640.994C128.953 637.274 125.283 633.534 121.703 629.724C113.843 621.364 106.123 612.774 99.0134 603.764C85.5334 587.094 73.6334 569.154 63.2334 550.414C42.1234 512.354 27.1434 471.044 16.9934 428.774C6.92341 386.824 1.52344 343.754 0.273437 300.644C0.0034374 291.284 -0.0666456 281.924 0.0633544 272.564C1.54335 166.754 47.6534 41.4243 159.903 7.57431C175.913 2.74431 192.263 0.354309 208.973 0.0143091V0.0243036Z" fill="currentColor"/>
<path id="Vector_2" d="M161.113 676.284C160.543 659.134 157.163 609.624 172.553 602.864C175.603 601.524 183.453 602.324 185.913 604.794C207.953 626.944 196.053 673.714 177.833 695.604C167.903 707.534 96.8833 676.284 101.053 662.854C106.013 646.884 148.413 671.774 161.113 676.274V676.284Z" fill="currentColor"/>
</g>
</svg>
