<svg preserveAspectRatio="none" width="100%" height="100%" overflow="visible" style="display: block;" viewBox="0 0 192.463 651.585" fill="none" xmlns="http://www.w3.org/2000/svg">
<g id="20">
<path id="Vector" d="M74.4633 556.5C67.7733 547.64 62.3233 538.85 58.6033 528.8C33.4533 460.89 16.8534 389.9 15.6534 316.8C14.1534 225.33 31.5433 135.66 60.7233 49.63C66.9433 31.28 74.7734 15.93 85.5234 0C38.5934 163.72 17.8033 326.12 61.0633 493.48C66.4933 514.47 73.9933 532.82 74.4633 556.5Z" fill="currentColor"/>
<path id="Vector_2" d="M112.643 509.43C114.313 518.85 114.853 527.03 113.383 535.56C100.533 525.3 97.7433 510.51 95.7733 494.42C76.1333 333.76 103.263 186.29 192.463 49.98C142.003 168.34 108.523 268.34 105.143 397.61C104.723 435.38 105.903 471.51 112.643 509.43Z" fill="currentColor"/>
<path id="Vector_3" d="M130.173 548.8C133.673 535.11 164.093 459.52 176.013 463.94C186.143 467.7 178.393 508.62 176.793 522.25L163.233 638.11C162.743 642.27 157.543 649.07 154.353 650.83C150.813 652.79 142.433 650.69 138.303 647.34C108.403 623.04 79.1033 600.89 47.1033 579.19C37.8333 572.9 -5.10667 545.3 0.50333 538.17C2.03333 536.23 8.16328 534.09 10.7033 535.05C34.4733 543.94 57.1533 553.69 80.2433 564.06C65.5833 568.32 42.4033 553.59 27.3633 553.69L148.533 637.55C152.133 619.47 152.973 603.39 154.843 586.83L164.863 498.07C149.933 513.86 148.223 534.16 130.163 548.81L130.173 548.8Z" fill="currentColor"/>
</g>
</svg>
