<svg preserveAspectRatio="none" width="100%" height="100%" overflow="visible" style="display: block;" viewBox="0 0 258.159 406.184" fill="none" xmlns="http://www.w3.org/2000/svg">
<g id="17">
<path id="Vector" d="M239.467 125.084L238.977 40.3841C238.927 32.0641 236.137 23.8742 232.187 15.3342L173.667 25.1241C149.897 29.1041 128.997 33.1142 103.547 39.6542L133.596 58.5442C135.696 59.8642 138.437 65.4142 138.297 67.7242C137.887 74.2342 113.857 78.3042 88.1065 111.854C26.6265 191.964 13.0266 309.724 7.92657 406.184C3.11657 395.764 1.13668 385.754 0.536679 374.404C-1.99332 326.444 4.61665 280.354 16.2566 233.944C32.3166 169.884 65.0866 105.164 120.717 66.5142L102.267 57.1842C93.9967 52.9942 85.4867 45.4142 79.8067 39.0542C86.9467 36.3942 90.9367 34.7243 96.7767 31.8643C137.827 11.7943 180.087 4.11414 225.727 0.124138C262.737 -3.11586 254.127 57.9342 255.417 81.7942L258.137 131.864C258.367 136.034 256.817 141.914 254.677 144.384C244.867 155.724 225.187 142.634 213.757 135.914C203.117 129.654 194.547 123.434 183.887 115.014C163.987 172.064 163.457 233.944 166.227 292.214L169.927 369.984C164.657 362.024 160.587 355.074 158.507 347.774C136.997 272.314 131.337 202.064 156.537 126.774C160.597 114.624 168.437 104.924 179.227 97.7742L198.207 101.534L239.477 125.114L239.467 125.084Z" fill="currentColor"/>
<path id="Vector_2" d="M39.5166 379.744C39.4266 381.384 38.9966 383.934 38.7666 384.524C38.4166 385.414 36.4466 386.804 35.8366 386.074C28.4166 377.274 31.2566 327.524 32.3266 312.944C37.9566 236.484 64.3065 164.614 111.406 104.614C118.516 95.5543 125.126 88.8143 134.926 82.1143C131.056 96.4543 123.857 106.914 115.057 118.734C83.5166 161.104 63.4766 209.304 52.3066 261.164C43.8366 300.464 41.8866 338.774 39.5166 379.744Z" fill="currentColor"/>
</g>
</svg>
