<svg preserveAspectRatio="none" width="100%" height="100%" overflow="visible" style="display: block;" viewBox="0 0 500 500" fill="none" xmlns="http://www.w3.org/2000/svg">
<g id="Arrow 20">
<path id="Arrow 20_2" d="M385.333 203.154C348.572 206.055 312.673 209.404 276.618 217.609C258.782 221.667 241.286 226.708 223.849 232.206C209.765 236.648 195.204 241.981 180.542 245.162C183.347 231.828 186.078 218.674 185.225 204.688C184.85 198.558 178.109 195.935 173.536 199.848C168.251 204.375 164.655 211.63 160.052 216.942C155.101 222.656 149.845 228.11 144.369 233.322C133.48 243.681 122.225 253.367 113.855 266.004C112.621 267.87 112.813 270.422 113.855 272.305C118.585 280.852 129.639 284.164 138.242 287.23C149.648 291.297 161.623 294.889 172.178 300.871C177.094 303.657 182.942 301.03 184.622 295.809C186.598 289.683 184.433 284.149 183.288 278.087C182.222 272.447 181.649 266.701 181.05 260.978C212.343 249.663 243.524 237.513 275.537 228.485C311.146 218.438 348.492 209.806 385.33 205.972C387.11 205.786 387.16 203.009 385.333 203.154Z" fill="currentColor"/>
</g>
</svg>
