<svg preserveAspectRatio="none" width="100%" height="100%" overflow="visible" style="display: block;" viewBox="0 0 500 500" fill="none" xmlns="http://www.w3.org/2000/svg">
<g id="Arrow 5">
<rect width="500" height="500" fill="white"/>
<path id="Arrow 5_2" d="M257.327 95.2891C254.455 92.8015 251.449 90.0765 248.309 87.5181C246.649 86.1645 243.897 85.1758 245.066 82.6068C246.197 80.1263 248.295 78.0428 250.188 75.9875C250.707 75.4241 252.042 75.378 252.968 75.4666C264.179 76.5155 274.585 73.5212 284.616 68.9678C288.417 67.2421 291.554 67.8941 294.909 70.3675C294.909 71.3349 295.135 72.3448 294.874 73.2058C290.784 86.657 286.686 100.105 282.43 113.503C281.791 115.508 280.346 117.259 279.177 119.296C273.621 119.399 272.328 114.396 269.587 111.412C266.821 108.4 264.539 104.942 261.632 101.143C258.414 103.429 255.288 105.261 252.608 107.606C231.276 126.263 217.759 149.65 211.464 177.226C210.394 181.914 210.122 186.85 210.034 191.683C209.783 205.613 215.42 216.704 227.006 224.436C233.449 228.734 240.379 232.306 246.818 236.612C253.847 241.31 261.201 245.804 267.294 251.572C283.617 267.029 286.153 285.558 274.995 305.108C271.653 310.962 267.309 316.305 262.971 321.5C257.998 327.457 252.516 332.981 247.267 338.704C246.447 339.597 245.688 340.55 244.886 341.461C224.219 364.947 219.588 389.468 242.929 423.695C244.021 425.293 245.48 426.683 246.313 428.39C246.712 429.213 246.419 430.991 245.769 431.541C245.098 432.108 243.268 432.164 242.562 431.629C241.05 430.485 239.817 428.904 238.684 427.345C229.959 415.336 224.484 401.934 222.425 387.247C220.701 374.965 223.4 363.296 230.234 353.165C236.313 344.157 243.576 335.936 250.506 327.524C255.133 321.911 260.442 316.844 264.847 311.072C282.808 287.532 279.622 265.711 255.733 248.319C250.654 244.62 245.077 241.608 239.715 238.302C234.353 234.996 228.846 231.909 223.633 228.387C209.907 219.124 204.432 205.702 205.046 189.543C205.219 184.958 205.781 180.291 206.908 175.851C214.77 144.852 229.694 118.209 255.197 98.2196C255.755 97.7802 256.235 97.2309 256.715 96.7029C256.867 96.5328 256.91 96.2635 257.327 95.2891ZM266.461 83.4927C266.231 83.5033 266.002 83.5139 265.772 83.5246C265.829 84.3325 265.885 85.1404 265.942 85.9484C266.115 85.9377 266.288 85.9271 266.461 85.9165C266.461 85.1085 266.461 84.3006 266.461 83.4927ZM282.744 79.2546C282.642 79.0739 282.536 78.8897 282.43 78.709C282.218 78.9995 281.858 79.2794 281.84 79.5806C281.826 79.8641 282.172 80.1689 282.359 80.463C282.49 80.059 282.617 79.6586 282.744 79.2546ZM259.336 86.7634C259.131 86.2602 259.068 85.6472 258.771 85.4983C258.464 85.3424 257.931 85.6365 257.496 85.7357C257.772 86.1078 257.987 86.5649 258.344 86.8236C258.545 86.9653 258.976 86.7952 259.336 86.7634Z" fill="currentColor"/>
</g>
</svg>
