<svg preserveAspectRatio="none" width="100%" height="100%" overflow="visible" style="display: block;" viewBox="0 0 500 500" fill="none" xmlns="http://www.w3.org/2000/svg">
<g id="Arrow 2">
<rect width="500" height="500" fill="white"/>
<path id="Arrow 2_2" d="M441.792 115.423C434.153 115.135 426.778 113.435 420.064 109.659C413.769 106.117 409.674 99.8781 403.468 96.4729C395.736 92.2347 387.195 95.0936 384.927 103.796C382.821 111.882 394.007 116.228 398.294 109.247C395.144 114.374 414.714 124.103 417.687 125.391C418.331 125.669 418.99 125.86 419.634 126.114C390.513 130.764 361.297 135.076 332.281 140.294C309.716 144.353 289.001 152.025 276.322 172.309C262.227 194.864 262.303 222.232 264.003 247.833C264.872 260.925 267.496 275.172 265.675 288.235C262.47 311.264 236.871 307.31 221.045 301.648C200.049 294.136 181.305 280.717 158.451 279.104C136.824 277.578 118.988 287.555 110.731 307.899C93.315 350.791 104.236 409.021 121.42 450.166C122.594 452.976 127.361 451.035 126.375 448.154C117.883 423.385 112.615 398.001 112.086 371.765C111.581 346.686 111.425 300.522 141.464 292.064C183.306 280.282 218.926 334.95 261.202 316.671C277.849 309.475 280.379 294.141 280.243 277.733C280.032 251.385 273.83 223.84 281.476 198.012C291.271 164.912 317.489 158.167 348.067 153.225C371.042 149.513 394.024 145.832 417.007 142.141C410.202 152.417 404.517 163.408 400.488 175.12C399.02 179.385 405.589 181.911 407.728 178.073C418.362 159.028 430.488 142.513 447.121 128.268C452.341 123.804 447.854 115.653 441.792 115.423Z" fill="currentColor"/>
</g>
</svg>
