<svg preserveAspectRatio="none" width="100%" height="100%" overflow="visible" style="display: block;" viewBox="0 0 500 500" fill="none" xmlns="http://www.w3.org/2000/svg">
<g id="Arrow 25">
<rect width="500" height="500" fill="white"/>
<path id="Arrow 25_2" d="M237.352 198.383C229.469 187.996 229.912 178.462 238.675 169.783C240.858 158.041 247.634 153.997 259.002 157.651C272.917 153.675 282.028 159.617 286.336 175.489C285.023 183.171 283.716 190.853 282.403 198.536C277.499 211.939 262.424 222.944 253.249 233.742C239.297 250.162 230.049 267.409 228.652 289.096C231.23 286.518 233.808 283.939 236.387 281.361C225.878 282.215 215.369 283.069 204.861 283.924C200.247 284.298 195.581 288.616 197.405 293.71C204.855 314.532 212.775 335.133 221.175 355.586C223.774 361.908 231.22 363.131 235.311 357.432C248.309 339.304 261.306 321.181 274.304 303.053C277.399 298.74 273.993 293.167 269.685 291.696C252.806 285.938 236.962 283.634 219.134 284.298C213.603 284.504 210.988 289.049 211.679 294.084C213.661 308.584 216.851 322.331 221.454 336.209C223.421 342.135 232.369 344.292 235.591 338.054C241.291 327.002 247.929 317.284 256.355 308.068C260.552 303.475 258.39 297.28 252.943 295.144C243.568 291.464 235.664 289.882 225.752 289.165C220.194 288.764 217.647 294.406 218.296 298.951C218.528 304.456 219.825 309.697 222.192 314.669C224.375 320.749 232.775 322.557 236.329 316.515C236.777 316.045 237.231 315.576 237.679 315.107C247.449 313.968 247.56 298.487 237.679 299.642C229.126 300.638 227.46 301.065 222.973 308.706C227.687 309.323 232.395 309.94 237.109 310.551C234.742 305.579 233.439 300.338 233.207 294.833C230.724 298.097 228.235 301.361 225.752 304.619C233.903 304.709 241.596 306.517 248.831 310.045C247.692 305.737 246.558 301.429 245.419 297.121C236.065 307.356 228.62 317.859 222.24 330.235C226.949 330.851 231.662 331.468 236.371 332.08C231.768 318.186 228.578 304.44 226.595 289.956C224.112 293.219 221.623 296.483 219.139 299.742C235.348 299.141 250.265 301.366 265.577 306.591C264.037 302.805 262.498 299.02 260.958 295.234C247.961 313.362 234.963 331.484 221.966 349.612C226.674 350.229 231.388 350.846 236.097 351.457C227.692 331.004 219.778 310.398 212.327 289.581C209.844 292.845 207.355 296.109 204.871 299.368C215.38 298.513 225.889 297.659 236.397 296.805C240.774 296.446 243.843 293.541 244.127 289.07C246.685 249.313 285.703 233.526 298.922 199.411C305.946 181.283 301.738 160.762 286.363 148.244C247.112 116.296 201.254 165.65 224.001 206.16C228.873 214.866 242.24 207.078 237.352 198.383Z" fill="currentColor"/>
</g>
</svg>
