<svg preserveAspectRatio="none" width="100%" height="100%" overflow="visible" style="display: block;" viewBox="0 0 500 500" fill="none" xmlns="http://www.w3.org/2000/svg">
<g id="Arrow 11">
<path id="Arrow 11_2" fill-rule="evenodd" clip-rule="evenodd" d="M386.539 272.184C381.404 270.672 377.092 269.405 372.783 268.134C356.994 263.473 341.157 258.972 325.709 253.246C321.854 251.819 318.084 250.243 315.144 247.237C312.736 244.775 312.983 243.675 316.131 242.395C319.553 241.004 323.058 241.106 326.617 241.707C337.698 243.586 348.291 247.258 358.99 250.497C382.062 257.488 405.232 264.104 428.755 269.429C429.385 269.572 430.016 269.725 430.632 269.916C434.63 271.15 436.871 273.826 436.758 277.216C436.648 280.472 434.466 282.98 430.407 283.94C418.671 286.711 407.109 290.111 395.459 293.207C376.321 298.294 357.009 302.666 337.576 306.472C336.21 306.743 334.809 306.928 333.422 306.992C331.707 307.067 330.156 306.609 329.543 304.773C328.988 303.098 329.842 301.844 331.076 300.843C333.175 299.133 335.574 297.923 338.07 296.897C347.169 293.16 356.745 291.048 366.231 288.627C368.577 288.029 371 287.643 373.664 286.246C371.539 285.484 369.83 285.675 368.169 285.661C347.394 285.452 326.609 285.452 305.89 283.932C269.984 281.296 234.347 276.905 199.852 265.868C180.571 259.702 163.193 250.012 146.983 238.051C135.478 229.566 124.591 220.252 112.548 212.493C106.61 208.664 100.272 205.715 93.1806 204.906C79.4244 203.337 70.2428 213.187 72.4688 226.883C73.833 235.283 78.3649 242.043 83.7277 248.276C95.0591 261.444 109.325 270.453 125.449 276.626C139.074 281.847 153.159 285.269 167.69 286.829C169.396 287.009 171.089 287.379 172.76 287.766C173.486 287.932 174.242 288.367 174.329 289.21C174.442 290.337 173.459 290.579 172.655 290.82C169.517 291.77 166.239 291.998 163.054 291.676C130.241 288.369 100.831 277.55 78.0816 252.556C72.0379 245.916 67.1751 238.475 65.0062 229.536C59.4982 206.861 77.3554 188.751 100.197 193.874C111.733 196.465 121.288 202.786 130.64 209.597C141.937 217.82 152.696 226.77 164.364 234.503C181.419 245.8 200.063 253.295 219.888 258.15C257.712 267.419 296.183 271.29 335.022 272.141C350.515 272.482 366.014 272.67 381.511 272.9C382.888 272.919 384.303 273.115 386.539 272.184Z" fill="currentColor"/>
</g>
</svg>
