<svg preserveAspectRatio="none" width="100%" height="100%" overflow="visible" style="display: block;" viewBox="0 0 500 500" fill="none" xmlns="http://www.w3.org/2000/svg">
<g id="Arrow 15">
<path id="Arrow 15_2" d="M86.71 302.295C85.1436 299.449 84.6436 294.478 85.2503 287.789C86.7505 271.236 95.3949 257.341 109.367 249.024C116.471 244.795 119.972 243.916 129.616 243.942C143.11 243.975 148.24 246.255 161.381 258.072C166.396 262.58 171.551 266.272 172.835 266.272C174.118 266.272 183.281 257.907 193.198 247.681C227.128 212.707 245.531 209.824 275.509 234.783C299.292 254.587 305.719 254.296 343.242 231.713C355.482 224.348 369.933 216.064 375.36 213.306L385.225 208.294L379.721 206.018C365.789 200.264 367.903 193.37 383.39 194.046C398.278 194.693 411.64 199.782 414.556 205.915C416.769 210.578 416.545 211.85 412.023 220.266C401.889 239.122 393.528 249.163 390.494 246.13C390.027 245.663 391.263 240.114 393.241 233.801C398.157 218.112 397.947 216.167 391.95 221.803C389.237 224.351 379.754 230.47 370.874 235.393C361.994 240.317 349.081 247.685 342.176 251.763C320.368 264.647 302.413 267.71 288.481 260.926C284.47 258.977 276.076 252.906 269.825 247.443C263.578 241.979 256.15 236.309 253.323 234.849C239.247 227.569 223.815 234.669 201.971 258.462C177.935 284.653 170.978 286.525 153.075 271.626C140.279 260.977 134.473 258.459 126.263 259.999C110.485 262.959 93.4241 282.05 90.1994 300.353L89.0927 306.63L86.71 302.295Z" fill="currentColor"/>
</g>
</svg>
