<svg preserveAspectRatio="none" width="100%" height="100%" overflow="visible" style="display: block;" viewBox="0 0 500 500" fill="none" xmlns="http://www.w3.org/2000/svg">
<g id="Arrow 23">
<path id="Arrow 23_2" d="M133.545 272.61C168.047 242.097 196.928 285.514 231.019 286.96C242.176 287.433 250.697 283.641 259.968 277.954C280.967 265.074 294.323 254.311 321.551 256.155C326.847 256.516 329.974 251.908 330.564 247.597C331.448 239.909 333.003 232.349 335.214 224.923C331.522 226.913 327.824 228.907 324.131 230.897C340.516 236.613 353.565 244.407 366.276 255.781C366.276 251.751 366.276 247.714 366.276 243.683C354.438 255.706 341.702 263.359 325.09 268.101C328.782 270.09 332.48 272.085 336.173 274.075C333.457 262.606 333.285 251.097 335.651 239.559C329.857 239.559 324.064 239.559 318.277 239.559C319.948 247.924 321.619 256.289 323.29 264.654C325.139 273.911 337.696 271.549 340.664 264.654C344.018 256.872 346.095 250.082 347.661 241.805C341.868 241.805 336.074 241.805 330.287 241.805C332.02 248.467 333.752 255.128 335.485 261.79C337.752 270.516 350.02 269.291 352.859 261.79C355.623 258.733 358.394 255.671 361.159 252.614C371.13 247.014 362.074 232.215 352.066 237.838C342.961 242.948 339.023 247.889 335.485 257.24C341.278 257.24 347.071 257.24 352.859 257.24C351.126 250.578 349.394 243.917 347.661 237.255C345.622 229.415 331.884 228.785 330.287 237.255C328.727 245.527 326.644 252.322 323.296 260.104C329.089 260.104 334.876 260.104 340.67 260.104C338.999 251.739 337.328 243.374 335.657 235.009C334.059 227 319.597 226.691 318.283 235.009C315.899 250.047 316.016 263.615 318.805 278.619C319.64 283.104 325.569 285.829 329.888 284.592C349.56 278.975 364.986 270.032 379.024 255.776C382.274 252.474 382.667 246.938 379.024 243.677C364.12 230.343 348.14 221.097 328.923 214.394C324.426 212.825 318.946 216.168 317.84 220.368C315.444 229.456 313.81 238.322 312.544 247.591C315.549 244.739 318.553 241.887 321.551 239.04C302.647 237.757 285.488 240.755 269.245 250.222C263.052 253.833 252.749 263.324 247.164 265.645C224.464 275.095 212.656 261.498 196.044 253.705C170.665 241.799 142.097 241.677 120.809 260.501C112.294 268.037 125.061 280.112 133.545 272.61Z" fill="currentColor"/>
</g>
</svg>
