<svg preserveAspectRatio="none" width="100%" height="100%" overflow="visible" style="display: block;" viewBox="0 0 500 500" fill="none" xmlns="http://www.w3.org/2000/svg">
<g id="Arrow 9">
<path id="Arrow 9_2" d="M165.116 292.508C165.726 290.936 166.329 289.753 166.643 288.498C168.559 280.848 170.345 273.165 172.323 265.534C172.893 263.327 173.856 261.197 174.809 259.109C177.947 252.243 181.027 245.348 184.388 238.593C187.62 232.103 192.129 226.407 196.619 220.767C200.506 215.885 204.869 211.389 208.905 206.624C213.848 200.789 219.8 196.114 225.966 191.712C238.083 183.057 251.299 176.434 265.261 171.367C276.095 167.435 287.256 164.352 298.663 162.842C318.518 160.213 337.356 163.678 354.666 174.136C355.162 174.434 355.587 175.076 355.746 175.643C355.911 176.233 355.892 177.014 355.626 177.549C355.389 178.019 354.676 178.583 354.219 178.544C352.922 178.437 351.577 178.21 350.378 177.724C348.167 176.83 345.855 176.486 343.635 177.027C337.148 178.606 330.519 178.09 323.994 178.236C312.729 178.492 301.71 180.162 290.828 182.677C280.594 185.044 270.445 187.803 260.749 192.075C251.361 196.215 242.644 201.388 234.216 207.207C224.348 214.021 216.72 223.088 208.564 231.643C197.637 246.6 188.126 262.273 183.464 280.459C182.32 284.919 181.163 289.396 179.62 293.724C178.375 297.208 178.128 300.794 177.707 304.372C177.616 305.147 178.304 306.013 178.631 306.836C179.509 306.483 180.573 306.337 181.234 305.747C186.126 301.364 190.894 296.845 195.786 292.459C201.903 286.974 208.26 281.814 215.447 277.729C220.277 274.984 224.747 271.602 229.917 269.447C231.528 268.776 233.071 268.779 234.608 269.739C235.713 270.429 236.926 270.951 238.051 271.615C241.318 273.544 241.441 276.624 238.115 278.426C231.169 282.19 224.611 286.521 218.163 291.072C207.388 298.683 197.488 307.28 188.395 316.82C185.451 319.91 182.654 323.145 179.561 326.075C176.44 329.035 173.58 332.085 171.49 335.92C169.898 338.838 166.831 339.094 163.781 337.298C160.773 335.528 158.773 333.087 158.017 329.67C156.74 323.887 154.503 318.36 153.703 312.438C153.265 309.196 152.247 306.029 151.479 302.833C151.174 301.559 150.591 300.301 150.552 299.02C150.283 290.054 147.647 281.541 145.582 272.932C144.652 269.055 144.062 265.19 144 261.229C143.971 259.313 146.632 257.913 148.432 258.979C149.537 259.634 150.74 260.37 151.463 261.382C154.529 265.667 156.941 270.306 158.432 275.395C159.91 280.449 161.385 285.506 162.996 290.518C163.22 291.24 164.222 291.704 165.116 292.508Z" fill="currentColor"/>
</g>
</svg>
