<svg preserveAspectRatio="none" width="100%" height="100%" overflow="visible" style="display: block;" viewBox="0 0 500 500" fill="none" xmlns="http://www.w3.org/2000/svg">
<g id="Arrow 18">
<rect width="500" height="500" fill="white"/>
<path id="Arrow 18_2" fill-rule="evenodd" clip-rule="evenodd" d="M253.741 308.688C257.596 301.395 261.319 294.51 264.867 287.541C266.288 284.746 267.546 281.713 271.182 281.779C274.732 281.849 276.363 284.708 277.501 287.62C282.954 301.599 289.704 314.956 296.665 328.218C297.494 329.788 298.303 331.397 298.845 333.081C300.562 338.412 298.483 342.485 293.085 344.367C289.008 345.79 284.84 346.842 280.567 347.597C270.831 349.303 261.194 351.495 251.647 354.096C248.257 355.019 244.622 355.523 241.118 355.416C235.136 355.229 230.216 351.375 234.424 344.181C238.138 337.82 241.695 331.366 245.626 325.146C247.593 322.039 246.959 320.271 244.085 318.357C226.043 306.372 216.101 288.936 209.723 268.671C198.738 233.757 198.431 198.746 207.101 163.442C208.627 157.239 211.032 151.358 214.924 146.221C215.99 144.815 217.432 143.237 219.384 144.41C220.833 145.28 220.474 147.137 220.202 148.6C218.562 157.327 216.494 166.001 215.22 174.781C210.585 206.673 212.01 238.024 223.19 268.682C229.135 284.989 238.267 298.492 253.741 308.688Z" fill="currentColor"/>
</g>
</svg>
