<svg preserveAspectRatio="none" width="100%" height="100%" overflow="visible" style="display: block;" viewBox="0 0 500 500" fill="none" xmlns="http://www.w3.org/2000/svg">
<g id="Arrow 21">
<rect width="500" height="500" fill="white"/>
<path id="Arrow 21_2" d="M402.884 241.868C387.527 229.937 371.678 218.633 355.396 208C354.314 214.962 353.425 221.274 352.564 227.795C333.693 227.06 314.288 233.541 299.55 244.976C294.098 249.207 289.28 254.097 285.16 259.633C278.838 268.13 274.184 279.63 264.442 284.945C239.084 298.779 218.619 268.305 207.009 250.954C190.809 226.748 166.924 203.094 135.174 210.826C104.764 218.23 89.335 250.763 100.779 279.315C101.497 281.11 104.39 280.421 103.755 278.494C89.5746 235.64 134.323 197.011 173.657 221.715C199.987 238.251 207.45 274.498 235.499 288.116C243.993 292.239 254.317 293.991 263.303 290.39C275.449 285.524 280.636 273.251 287.803 263.288C303.275 241.774 327.185 232.168 351.951 232.526C351.122 238.996 350.287 245.848 349.3 253.928C367.087 249.589 384.952 245.568 402.884 241.868Z" fill="currentColor"/>
</g>
</svg>
