<svg preserveAspectRatio="none" width="100%" height="100%" overflow="visible" style="display: block;" viewBox="0 0 500 500" fill="none" xmlns="http://www.w3.org/2000/svg">
<g id="Arrow 22">
<rect width="500" height="500" fill="white"/>
<g id="Arrow 22_2">
<path d="M359.565 142.138C342.958 140.215 326.257 137.752 310.714 140.04C302.964 140.32 295.346 141.672 289.451 145.304C286.481 147.104 284.157 149.338 282.415 152.136C280.699 154.89 279.733 158.027 279.81 160.927C279.854 163.791 280.969 166.473 283.056 169.457C285.093 172.43 287.942 175.381 290.667 179.108C295.987 186.315 300.075 194.389 302.49 203.195C304.717 211.95 305.394 221.886 301.576 231.126C299.707 235.669 296.912 239.903 293.331 243.269C289.76 246.669 285.501 249.215 281.107 250.961C263.258 257.854 244.949 253.915 229.137 251.784C221.099 250.749 213.2 250.144 205.862 251.314C198.532 252.458 191.777 255.42 187.379 260.576C185.2 263.09 183.666 265.975 183.229 268.904C182.745 271.794 183.28 274.956 184.526 278.417C185.747 281.879 187.616 285.555 189.281 289.701C190.126 291.774 190.88 293.997 191.456 296.394C191.791 297.567 192.101 298.748 192.207 299.958C192.378 301.16 192.531 302.373 192.422 303.579C192.061 313.278 188.075 322.11 182.358 328.945C176.587 335.787 168.557 340.48 160.25 341.722C175.731 335.015 183.776 318 181.502 304.049C181.021 300.555 180.744 297.316 179.138 293.764C177.724 290.197 175.796 286.451 174.23 282.079C172.67 277.765 171.545 272.501 172.441 267.145C173.272 261.825 175.888 257.129 179.134 253.398C182.398 249.631 186.381 246.738 190.735 244.595C195.092 242.548 199.588 241.233 204.15 240.515C213.273 239.087 222.138 239.874 230.539 240.937C238.992 242.001 247.022 243.561 254.798 243.841C262.598 244.162 270.392 243.451 277.056 240.806C283.719 238.249 288.937 233.323 291.447 227.019C294.103 220.767 293.761 213.196 291.932 205.997C289.95 198.765 286.445 191.762 281.89 185.612C279.741 182.606 276.782 179.56 274.086 175.687C272.738 173.756 271.452 171.574 270.486 169.111C269.517 166.655 268.945 163.86 268.89 161.175C268.767 150.267 275.354 140.991 283.767 135.963C292.19 130.931 301.529 129.386 310.277 129C328.108 129.987 344.095 135.872 359.565 142.138Z" fill="currentColor"/>
<path d="M142.222 340.837C142.229 347.22 141.555 353.607 140.2 359.845C138.79 366.33 145.089 371.886 151.363 369.726C162.192 365.998 173.217 362.836 184.377 360.26C191.82 358.54 193.544 348.758 187.12 344.622C176.314 337.667 165.828 330.839 155.01 323.877C148.886 319.934 141.06 324.875 141.785 332.122C142.073 335.018 142.218 337.926 142.222 340.837Z" fill="currentColor"/>
</g>
</g>
</svg>
