<svg preserveAspectRatio="none" width="100%" height="100%" overflow="visible" style="display: block;" viewBox="0 0 500 500" fill="none" xmlns="http://www.w3.org/2000/svg">
<g id="Arrow 1">
<path id="Arrow 1_2" d="M373.385 91.8286C373.159 91.6622 372.951 91.3762 372.725 91.3629C368.983 91.1156 365.237 90.9019 361.493 90.6789C359.08 90.5353 356.66 90.4831 354.256 90.233C349.925 89.7816 345.784 88.7588 342.444 85.6273C342.093 84.0485 343.014 82.9114 344.308 82.6153C347.687 81.8423 351.126 80.9835 354.561 80.8794C360.991 80.6858 367.45 80.7893 373.875 81.1692C379.485 81.5 385.105 82.1353 390.639 83.0993C394.903 83.8421 399.134 84.3139 403.433 84.1618C407.731 84.0097 411.252 85.6449 414.284 88.5688C415.604 89.8401 416.185 91.9403 415.353 93.7331C414.689 95.1674 413.851 96.5811 412.826 97.7778C407.933 103.478 402.904 109.06 398.008 114.757C390.125 123.922 382.943 133.613 376.782 144.026C375.576 146.061 373.98 147.851 373.134 150.152C372.873 150.858 371.406 151.405 370.437 151.507C367.949 151.763 365.688 150.745 363.641 149.468C362.266 148.608 361.284 147.256 361.311 145.461C361.348 143.034 361.789 140.869 363.103 138.617C370.683 125.616 379.591 113.567 388.802 101.716C388.987 101.479 388.727 100.823 388.558 100.408C388.484 100.221 388.129 100.061 387.891 100.047C387.361 100.013 386.783 99.9625 386.294 100.123C380.437 102.05 374.501 103.784 368.765 106.023C359.547 109.623 350.536 113.751 341.306 117.312C328.497 122.254 316.674 129.123 304.805 135.84C298.54 139.383 292.634 143.618 286.425 147.337C282.555 149.655 279.275 152.931 275.571 155.552C268.331 160.675 261.974 166.852 255.174 172.493C249.213 177.441 243.962 183.242 237.94 188.168C237.737 188.334 237.541 188.538 237.408 188.76C233.943 194.573 228.483 198.679 224.411 203.986C220.329 209.305 215.92 214.372 211.645 219.544C208.399 223.471 205.299 227.487 202.714 231.904C201.505 233.973 199.743 235.709 198.403 237.711C189.76 250.63 181.656 263.879 174.643 277.761C172.229 282.538 170.138 287.481 168.001 292.393C165.861 297.307 163.616 302.192 161.82 307.237C156.961 320.879 152.644 334.682 150.375 349.046C148.7 359.653 146.701 370.214 145.313 380.856C143.996 390.952 142.854 401.105 142.577 411.286C142.365 419.058 142.901 426.852 143.107 434.637C143.135 435.711 143.228 436.785 143.213 437.858C143.159 442.16 139.971 444.599 135.59 443.687C134.807 443.524 133.981 443.347 133.299 442.96C132.634 442.582 131.821 442.023 131.609 441.371C130.871 439.084 129.93 436.739 129.848 434.387C129.576 426.617 129.075 418.85 129.105 411.066C129.129 405.146 129.422 399.256 130.279 393.407C132.46 378.547 134.602 363.678 136.993 348.852C137.971 342.781 139.312 336.744 140.931 330.814C142.335 325.676 144.027 320.614 145.162 315.397C145.333 314.609 145.454 313.778 145.808 313.072C147.732 309.241 148.982 305.164 150.42 301.147C151.861 297.118 153.572 293.175 155.353 289.281C156.345 287.108 157.626 285.046 158.951 283.048C160.304 281.011 161.61 279.005 161.532 276.444C161.478 274.662 162.421 273.304 163.582 272.225C165.604 270.345 166.841 268.065 168.04 265.624C169.684 262.276 171.753 259.137 173.614 255.893C175.207 253.114 176.517 250.138 178.394 247.572C180.332 244.924 181.626 242.078 182.859 239.084C183.65 237.16 185.141 235.452 186.579 233.888C189.308 230.912 191.486 227.556 193.867 224.326C200.666 215.092 206.982 205.491 214.962 197.14C218.481 193.46 222.055 189.898 225.809 186.454C231.528 181.214 236.79 175.473 242.254 169.956C246.961 165.205 251.585 160.387 257.252 156.682C258.994 155.546 260.529 153.963 262.123 152.566C272.65 143.337 284.661 136.205 296.066 128.218C304.89 123.705 313.25 118.373 322.11 113.877C332.672 108.515 343.761 104.598 354.675 100.185C360.136 97.9769 365.678 95.9687 371.139 93.7643C372.007 93.4156 373.291 93.2128 373.385 91.8286Z" fill="currentColor"/>
</g>
</svg>
