<svg preserveAspectRatio="none" width="100%" height="100%" overflow="visible" style="display: block;" viewBox="0 0 500 500" fill="none" xmlns="http://www.w3.org/2000/svg">
<g id="Arrow 7">
<path id="Arrow 7_2" d="M241.206 384.26C240.204 381.578 239.148 378.77 238.109 375.954C235.161 367.952 232.126 359.979 229.309 351.93C227.656 347.208 226.187 342.406 225.541 337.41C225.447 336.684 226.118 335.963 226.837 335.928C229.538 335.8 231.78 336.642 233.219 339.04C233.865 340.114 234.476 341.228 234.923 342.394C236.546 346.625 238.968 350.443 241.115 354.4C241.389 354.904 242.23 355.101 243.039 355.576C243.675 353.4 244.449 351.518 244.753 349.562C245.836 342.619 247.014 335.674 247.669 328.687C248.345 321.497 248.844 314.265 248.419 307.021C248.228 303.766 248.189 300.484 247.706 297.27C247.189 293.812 246.405 290.412 245.003 287.122C243.536 283.679 242.915 279.875 241.439 276.437C239.064 270.907 236.42 265.483 233.654 260.134C229.274 251.66 224.859 243.213 221.213 234.383C216.894 223.926 213.27 213.219 210.455 202.285C208.58 195.009 207.692 187.578 208.096 179.924C208.746 167.609 212.469 156.356 218.027 145.504C222.625 136.524 228.433 128.351 234.179 120.112C236.412 116.908 239.272 114.606 242.794 113.068C243.155 112.91 243.942 113.043 244.135 113.317C244.526 113.878 244.855 114.638 244.82 115.295C244.783 115.994 244.422 116.765 243.981 117.338C241.087 121.117 238.416 125.059 235.475 128.808C233.949 130.754 232.643 132.999 231.78 135.311C229.148 142.36 225.769 149.073 222.808 155.971C220.203 162.042 218.791 168.461 218.645 175.001C218.502 181.485 218.368 188.01 219.491 194.481C220.782 201.91 222.58 209.161 225.546 216.121C227.711 221.197 229.677 226.356 231.755 231.469C232.321 232.864 232.925 234.25 233.598 235.596C239.433 247.256 245.535 258.79 251.07 270.591C257.301 283.879 261.335 297.811 261.328 312.67C261.326 315.932 261.43 319.195 261.378 322.458C261.237 331.524 259.174 340.384 258.444 349.389C256.154 354.706 256.549 360.73 254.083 366.011C253.927 366.342 254.212 367.055 254.519 367.364C254.761 367.606 255.357 367.544 255.792 367.53C256.02 367.522 256.275 367.359 256.46 367.201C260.086 364.099 263.718 361.024 266.347 356.939C268.385 353.773 270.552 350.683 272.783 347.65C276.503 342.594 280.273 337.566 284.965 333.335C285.888 332.502 286.919 331.752 288.002 331.151C288.618 330.811 289.477 330.66 290.167 330.778C290.802 330.887 291.473 331.374 291.896 331.882C292.113 332.144 291.958 332.902 291.728 333.3C291.371 333.92 290.919 334.624 290.32 334.947C286.16 337.185 283.844 341.018 281.574 344.881C280.688 346.388 280.156 348.117 279.189 349.562C275.843 354.558 272.926 359.851 269.033 364.472C267.737 366.011 266.715 367.643 265.81 369.478C262.045 377.09 256 382.746 249.193 387.619C248.533 388.093 247.105 388.118 246.356 387.73C244.602 386.812 243.034 385.522 241.206 384.26Z" fill="currentColor"/>
</g>
</svg>
