<svg preserveAspectRatio="none" width="100%" height="100%" overflow="visible" style="display: block;" viewBox="0 0 500 500" fill="none" xmlns="http://www.w3.org/2000/svg">
<g id="Arrow 14">
<rect width="500" height="500" fill="white"/>
<path id="Arrow 14_2" fill-rule="evenodd" clip-rule="evenodd" d="M275.658 338.91C288.523 325.239 304.959 316.843 320.797 307.529C334.664 299.366 346.711 288.963 356.637 276.291C363.734 267.23 366.279 256.97 363.027 245.606C358.433 229.58 345.703 221.601 329.383 224.921C314.101 228.024 301.12 235.619 289.826 246.211C279.497 255.901 269.588 266.053 258.591 275.015C251.487 280.805 244.001 285.848 234.765 287.771C222.004 290.429 213.539 285.593 209.693 273.168C207.208 265.13 207.917 257.199 210.398 249.294C213.081 240.755 217.463 233.123 222.605 225.862C227.866 218.43 233.08 210.964 238.176 203.419C240.581 199.858 242.648 196.067 243.176 191.669C243.862 185.934 242.412 183.339 237.229 180.733C233.257 178.734 229.093 178.092 224.704 178.695C216.618 179.808 208.84 181.94 201.754 186.084C193.465 190.936 185.265 195.94 177.033 200.89C170.953 204.541 164.672 207.763 158.013 210.261C151.922 212.54 145.765 213.081 139.395 211.606C129.761 209.378 124.886 203.358 124.153 193.5C122.655 173.263 132.348 158.09 145.887 144.633C148.502 142.032 151.025 138.963 155.818 139C155.615 141.41 154.056 142.964 152.649 144.487C146.221 151.416 141.632 159.555 137.049 167.726C132.385 176.036 131.632 185.022 132.184 194.203C132.505 199.576 135.781 202.776 141.376 203.651C146.992 204.524 152.404 203.878 157.646 201.401C167.969 196.523 177.476 190.264 187.096 184.207C196.771 178.116 206.692 172.621 218.12 170.526C225.693 169.138 233.168 168.762 240.424 172.16C250.383 176.824 254.396 185.013 251.668 195.748C250.54 200.187 248.595 204.31 245.985 208.09C240.959 215.373 235.918 222.642 230.83 229.886C225.128 238.003 220.152 246.442 217.976 256.291C216.852 261.387 216.996 266.335 218.864 271.202C221.26 277.441 223.875 279.037 230.485 278.133C237.474 277.177 243.338 273.685 248.746 269.425C257.103 262.843 264.728 255.438 272.439 248.127C277.766 243.085 283.047 237.983 288.639 233.243C298.619 224.783 310.068 218.993 322.707 215.589C337.259 211.665 350.98 212.525 362.106 223.95C374.239 236.396 377.844 251.27 372.982 268.029C370.821 275.468 366.598 281.734 361.43 287.417C349.771 300.233 336.666 311.21 321.421 319.615C308.126 326.944 295.003 334.584 284.084 345.392C283.573 345.896 283.104 346.452 282.089 347.557C284.798 348.659 287.17 347.899 289.398 347.637C294.669 347.015 299.907 346.108 305.177 345.438C307.425 345.152 309.721 345.012 311.984 345.108C315.036 345.228 317.414 346.494 317.75 349.927C318.06 353.085 316.114 354.97 312.022 355.483C303.244 356.581 294.431 357.461 285.682 358.744C280.675 359.482 275.688 360.32 270.627 360.468C264.224 360.649 262.137 358.807 262.585 352.544C263.475 340.167 265.333 327.924 269.302 316.101C269.728 314.833 269.748 312.825 271.803 312.843C273.923 312.862 274.804 314.39 275.228 316.267C275.847 319.015 275.839 321.754 275.511 324.556C274.988 329.061 274.7 333.598 274.309 338.118C274.754 338.377 275.204 338.644 275.658 338.91Z" fill="currentColor"/>
</g>
</svg>
