<svg preserveAspectRatio="none" width="100%" height="100%" overflow="visible" style="display: block;" viewBox="0 0 500 500" fill="none" xmlns="http://www.w3.org/2000/svg">
<g id="Arrow 8">
<path id="Arrow 8_2" d="M378.812 163.605C325.923 236.195 232.89 278.842 144.744 290.302C154.421 281.559 162.065 270.732 166.419 258.144C167.411 255.278 163.32 253.94 161.776 256.188C150.681 272.34 138.058 285.288 120.548 294.474C116.298 296.705 117.814 302.62 121.796 304.02C132.519 307.791 142.584 312.699 151.967 319.127C159.831 324.516 166.752 331.556 175.498 335.517C181.297 338.141 185.866 330.599 180.52 326.923C167.297 317.827 155.115 308.579 141.357 301.336C188.486 295.582 234.347 281.59 276.262 259.104C297.588 247.665 317.75 234.165 336.409 218.752C354.058 204.175 373.572 186.888 381.358 164.681C381.922 163.082 379.676 162.419 378.812 163.605Z" fill="currentColor"/>
</g>
</svg>
