<svg preserveAspectRatio="none" width="100%" height="100%" overflow="visible" style="display: block;" viewBox="0 0 500 500" fill="none" xmlns="http://www.w3.org/2000/svg">
<g id="Arrow 4">
<path id="Arrow 4_2" d="M401.566 96.328C398.575 95.6278 395.549 95.2193 392.496 94.9904C377.592 89.2496 360.27 89.9229 344.656 90.1428C319.77 90.4974 295.351 93.9895 271.261 100.224C261.507 102.751 263.859 117.043 273.586 117.388C295.14 118.151 316.645 117.505 338.199 117.635C343.393 117.666 348.515 117.77 353.641 117.716C302.974 148.319 257.936 189.451 216.933 231.24C166.215 282.925 125.612 340.728 90.5578 403.832C87.981 408.474 95.0188 412.59 97.69 407.993C132.812 347.591 179.571 292.454 229.641 243.924C275.088 199.869 325.252 156.815 381.784 127.137C375.87 145.432 367.357 163.436 361.075 181.018C351.447 207.958 342.61 234.723 341.072 263.445C340.519 273.8 355.629 275.075 358.597 265.81C367.384 238.358 376.536 210.987 386.825 184.034C396.129 159.657 408.959 133.753 409.993 107.37C410.182 102.536 406.31 97.4412 401.566 96.328Z" fill="currentColor"/>
</g>
</svg>
