<svg preserveAspectRatio="none" width="100%" height="100%" overflow="visible" style="display: block;" viewBox="0 0 500 500" fill="none" xmlns="http://www.w3.org/2000/svg">
<g id="Arrow 12">
<path id="Arrow 12_2" d="M193.852 132.737C194.378 130.181 195.94 128.553 198.4 127.759C200.377 127.12 202.336 126.394 204.354 125.907C221.384 121.793 238.264 117.082 255.381 113.301C258.537 112.603 261.283 113.231 264.064 114.042C267.363 115.004 268.948 118.628 267.813 121.954C267.147 123.914 266.436 125.884 265.497 127.724C262.128 134.321 258.809 140.926 257.37 148.28C253.197 155.046 253.059 162.984 250.939 170.348C250.696 171.194 250.731 172.127 250.445 172.953C249.167 176.649 245.069 178.023 241.794 175.888C241.297 175.564 240.864 175.147 240.373 174.814C238.416 173.49 237.758 171.605 238.252 169.397C240.258 160.44 242.113 151.449 245.321 142.802C246.651 139.213 247.739 135.534 248.836 131.867C248.941 131.514 248.365 130.901 248.003 130.502C247.877 130.362 247.429 130.476 247.14 130.537C246.859 130.595 246.558 130.68 246.327 130.84C239.764 135.435 232.947 139.657 226.987 145.098C224.337 147.516 221.793 149.955 219.708 152.867C217.637 155.755 215.552 158.634 213.49 161.531C212.976 162.255 212.405 162.978 212.066 163.786C208.621 171.99 205.088 180.244 204.74 189.253C204.57 193.626 205.147 198.159 206.229 202.41C207.404 207.034 210.218 211.072 213.876 214.176C216.786 216.644 219.798 219.048 223.393 220.667C228.262 222.861 232.971 225.417 237.723 227.864C242.736 230.446 247.719 233.081 252.711 235.701C253.501 236.115 254.326 236.491 255.039 237.013C267.299 245.917 279.444 254.941 289.203 266.727C292.438 270.634 295.365 274.674 297.658 279.222C300.864 285.58 304.083 291.884 305.832 298.865C307.727 306.416 307.643 314.15 308.432 321.802C307.35 325.778 307.912 330.041 306.06 333.927C305.192 335.747 304.972 337.912 304.645 339.951C303.118 349.462 297.647 356.796 291.523 363.775C290.944 364.434 290.212 365 289.464 365.464C284.679 368.425 279.813 371.255 275.098 374.318C273.051 375.649 270.718 376.037 268.6 377.002C266.755 377.843 265.38 379.742 263.523 380.532C259.984 382.041 256.323 383.429 252.58 384.261C245.929 385.74 239.22 387.312 232.459 387.829C225.107 388.389 217.696 387.566 210.513 385.483C207.79 384.693 205.848 382.913 204.269 380.728C201.801 377.309 202.149 374.622 205.272 371.319C206.199 370.339 207.328 370.181 208.51 370.569C211.04 371.398 213.543 372.299 216.052 373.195C219.752 374.514 223.551 374.843 227.458 374.613C235.527 374.137 243.253 372.574 250.758 369.327C256.797 366.716 262.473 363.67 267.831 359.903C270.051 358.343 271.943 356.519 273.633 354.433C278.751 348.12 282.302 340.999 284.559 333.232C285.469 330.102 286.042 326.873 286.978 323.754C288.464 318.806 288.563 313.73 287.715 308.785C287.004 304.651 286.533 300.537 286.738 296.415C287.148 288.217 284.033 281.37 279.19 275.106C273.35 267.55 266.524 260.989 258.97 255.125C249.763 247.974 239.542 242.591 229.025 237.734C220.316 233.711 212.505 228.41 205.331 222.094C198.388 215.979 195.364 210.838 191.969 198.658C190.834 194.583 190.802 190.577 191.331 186.388C191.893 181.95 193.019 177.67 194.039 173.358C194.861 169.887 196.706 166.823 198.394 163.673C202.339 156.306 206.939 149.45 212.818 143.493C215.108 141.171 217.555 139.006 219.854 136.692C220.109 136.436 219.904 135.645 219.772 135.138C219.722 134.948 219.255 134.706 219.018 134.744C215.216 135.33 211.39 135.814 207.632 136.62C202.985 137.614 198.786 136.885 194.96 134.093C194.51 133.752 194.221 133.195 193.852 132.737Z" fill="currentColor"/>
</g>
</svg>
