<svg preserveAspectRatio="none" width="100%" height="100%" overflow="visible" style="display: block;" viewBox="0 0 500 500" fill="none" xmlns="http://www.w3.org/2000/svg">
<g id="Arrow 3">
<rect width="500" height="500" fill="white"/>
<path id="Arrow 3_2" d="M367.059 109.099C365.277 101.647 364.732 93.9498 363.482 86.4034C362.597 81.056 361.182 75.4685 359.006 70.2513C358.037 66.3087 356.822 62.4491 355.214 58.7713C353.272 54.326 348.329 52.7934 344.472 54.997C343.397 55.1967 342.352 55.5893 341.444 56.1257C329.764 63.0124 318.722 70.9515 307.511 78.5675C300.796 83.1295 293.833 87.1551 286.533 90.7118C282.442 92.7044 278.991 94.1765 275.925 97.5895C273.945 99.7931 276.966 102.753 279.307 101.263C281.009 100.179 282.819 99.259 284.672 98.3973C292.395 103.832 302.779 96.9971 309.59 92.6528C318.141 87.1977 326.936 82.0097 335.784 76.9406C332.572 93.1263 325.853 109.642 313.218 120.857C301.072 131.639 284.638 136.316 274.927 150.038C263.685 165.923 275.055 180.116 277.365 196.384C278.778 206.334 265.502 214.129 258.866 219.279C249.411 226.617 240.202 234.222 231.519 242.464C224.95 248.698 217.942 254.272 212.452 261.549C207.215 268.489 206.321 276.622 205.843 285.036C205.273 295.04 204.304 304.992 203.881 315.009C203.309 328.464 191.508 342.08 183.181 351.832C169.342 368.043 149.642 378.174 136.362 394.887C131.535 400.962 131.121 408.346 131.008 415.756C130.928 421.186 131.43 426.583 132.542 431.892C132.879 433.497 136.292 439.923 134.446 441.526C131.607 443.992 134.706 448.675 137.889 446.388C142.298 443.218 143.15 440.491 141.015 435.42C136.794 425.394 138.777 406.735 145.617 398.825C152.816 390.502 162.993 384.105 171.665 377.443C180.858 370.381 189.236 362.583 196.713 353.715C203.188 346.032 209.449 337.112 213.394 327.849C217.772 317.569 216.91 305.106 217.904 294.113C218.909 282.999 218.435 273.98 226.208 265.141C233.578 256.76 243.232 249.182 251.779 242.058C265.699 230.452 284.934 220.875 290.729 202.589C293.084 195.157 289.431 186.208 286.919 179.359C282.647 167.709 283.364 159.57 293.14 151.552C305.786 141.183 320.695 135.876 331.171 122.756C337.06 115.377 343.57 105.506 346.927 95.276C346.974 95.7966 347.028 96.315 347.073 96.8378C348.181 109.316 350.143 121.669 350.54 134.204C350.899 145.491 369.044 141.56 366.158 131.971C366.156 131.417 366.126 130.865 366.115 130.311C367.255 129.384 368.14 128.051 368.506 126.252C369.728 120.236 368.468 114.987 367.059 109.099Z" fill="currentColor"/>
</g>
</svg>
