<svg preserveAspectRatio="none" width="100%" height="100%" overflow="visible" style="display: block;" viewBox="0 0 500 500" fill="none" xmlns="http://www.w3.org/2000/svg">
<g id="Arrow 10">
<rect width="500" height="500" fill="white"/>
<path id="Arrow 10_2" d="M381.284 144.123C356.33 142.682 329.443 154.142 307.419 164.864C286.055 175.268 262.453 188.962 248.712 209.004C243.129 217.148 239.368 226.676 239.542 236.666C239.806 251.935 249.929 264.537 241.469 279.719C233.532 293.962 217.917 300.984 203.638 307.218C188.281 313.924 172.666 320.142 157.566 327.41C157.328 327.524 157.128 327.665 156.929 327.807C154.816 324.253 152.499 320.918 149.926 318.007C149.4 317.095 148.876 316.18 148.349 315.268C146.431 311.939 141.668 312.119 139.709 315.268C132.765 326.426 125.762 337.545 118.749 348.658C116.584 352.09 119.428 356.428 123.251 356.506C136.596 356.778 149.938 356.755 163.285 356.744C167.324 356.742 169.076 352.608 167.562 349.29C166.844 347.721 166.104 346.083 165.345 344.417C165.331 343.94 165.217 343.452 164.946 342.978C164.691 342.535 164.411 342.127 164.114 341.742C163.271 339.921 162.404 338.085 161.489 336.239C175.055 330.87 188.309 324.685 201.637 318.759C213.205 313.614 225.188 308.732 235.184 300.784C243.223 294.392 250.079 285.918 252.965 275.905C256.291 264.359 252.108 255.076 249.538 243.94C242.403 213.026 276.538 191.257 299.25 178.156C312.234 170.669 325.84 164.332 339.975 159.336C353.649 154.505 368.172 151.938 381.608 146.532C382.861 146.028 382.734 144.209 381.284 144.123Z" fill="currentColor"/>
</g>
</svg>
