<svg preserveAspectRatio="none" width="100%" height="100%" overflow="visible" style="display: block;" viewBox="0 0 500 500" fill="none" xmlns="http://www.w3.org/2000/svg">
<g id="Arrow 6">
<rect width="500" height="500" fill="white"/>
<path id="Arrow 6_2" d="M328.127 393.193C317.556 397.888 308.619 405.132 301.051 413.697C300.884 413.068 300.571 412.459 300.039 411.929C286.835 398.718 305.285 382.405 312.952 371.643C320.798 360.632 326.95 348.19 330.63 335.169C337.5 310.857 334.743 284.516 318.464 264.52C301.421 243.588 275.564 233.397 250.978 224.239C222.57 213.657 189.036 201.278 176.186 171.109C162.797 139.664 180.466 92.3994 209.467 75.3289C211.515 74.1237 209.721 71.2255 207.634 72.1951C181.575 84.301 168.229 113.467 164.619 140.688C160.722 170.077 175.573 194.21 199.348 210.442C227.27 229.504 262.095 234.341 290.523 252.45C321.269 272.035 331.768 304.704 319.645 338.931C316.301 348.374 311.556 357.375 305.815 365.584C300.784 372.778 294.256 379.123 290.141 386.929C285.839 395.088 284.741 404.581 288.945 412.054C280.161 407.638 271.476 403.024 262.519 398.97C259.78 397.73 256.266 401.233 259.005 403.518C270.524 413.128 283.958 420.061 297.473 426.431C299.966 427.607 302.199 426.917 303.842 424.763C311.721 414.425 321.409 407.246 332.701 401.01C337.916 398.128 333.336 390.878 328.127 393.193Z" fill="currentColor"/>
</g>
</svg>
