<svg preserveAspectRatio="none" width="100%" height="100%" overflow="visible" style="display: block;" viewBox="0 0 500 500" fill="none" xmlns="http://www.w3.org/2000/svg">
<g id="Arrow 13">
<path id="Arrow 13_2" d="M437.699 254.384C425.049 254.612 412.933 251.944 401.069 247.678C398.525 246.764 397.373 250.422 399.335 251.795C407.193 257.296 415.901 260.558 425.073 262.095C403.63 272.888 378.301 283.401 355.332 271.865C336.335 262.325 332.139 239.506 319.93 223.866C309.424 210.405 292.301 203.14 279.516 218.005C273.689 224.78 270.812 233.65 268.792 242.205C266.519 251.829 266.326 278.442 252.99 279.578C239.739 280.708 230.287 264.836 226.301 254.519C222.02 243.442 220.165 231.573 215.199 220.734C207.945 204.896 191.55 190.837 173.337 197.852C155.269 204.811 143.593 226.891 137.02 243.85C133.072 254.033 130.429 264.685 128.814 275.48C128.11 280.18 128.078 285.185 126.935 289.784C125.83 294.23 124.493 300.365 116.874 296.551C114.029 295.126 110.847 288.741 109.099 286.202C101.177 274.699 95.8216 262.257 89.299 250.027C85.9116 243.674 79.6955 236.697 71.6082 238.356C63.1862 240.084 59.3916 250.925 57.8754 258.225C55.7482 268.469 57.583 278.349 62.4543 287.495C63.0995 288.708 64.7912 287.643 64.2589 286.44C61.2768 279.675 59.8069 272.497 60.4179 265.11C60.9764 258.348 66.9224 234.56 80.6471 246.128C84.597 249.458 86.5084 256.63 88.5328 261.108C90.9826 266.527 93.6602 271.839 96.5838 277.015C101.175 285.142 114.041 313.315 127.263 302.601C132.028 298.74 133.1 291.735 133.907 286.077C135.58 274.349 137.312 263.004 141.105 251.73C147.426 232.942 167.29 191.895 193.026 205.223C214.667 216.429 213.386 246.195 223.671 265.318C229.992 277.072 245.068 291.816 259.755 285.138C266.493 282.075 268.842 274.507 270.608 267.912C273.534 256.996 274.385 245.508 278.27 234.849C283.809 219.654 296.683 210.034 310.492 224.015C317.543 231.153 321.517 240.853 325.894 249.714C334.808 267.754 346.678 281.379 367.454 284.813C387.905 288.196 407.318 280.805 425.484 271.946C424.045 275.962 423.099 280.137 422.895 284.388C422.667 289.162 430.166 290.2 431.249 285.52C433.364 276.392 435.81 268.618 441.495 261.006C443.534 258.275 440.766 254.33 437.699 254.384Z" fill="currentColor"/>
</g>
</svg>
