<svg preserveAspectRatio="none" width="100%" height="100%" overflow="visible" style="display: block;" viewBox="0 0 500 500" fill="none" xmlns="http://www.w3.org/2000/svg">
<g id="Arrow 19">
<rect width="500" height="500" fill="white"/>
<path id="Arrow 19_2" d="M212.718 324.522C168.032 278.122 202.31 206.529 266.111 210.413C270.753 210.696 275.088 206.144 274.932 201.599C274.559 190.968 274.18 180.344 273.807 169.713C270.086 172.545 266.364 175.383 262.648 178.215C281.311 182.208 295.76 188.972 310.299 201.358C309.842 197.799 309.379 194.233 308.922 190.674C297.492 205.501 284.715 216.991 268.985 227.135C273.302 228.89 277.619 230.646 281.937 232.402C277.95 215.596 276.808 199.621 278.052 182.484C272.28 183.266 266.508 184.048 260.73 184.829C262.636 195.327 264.548 205.82 266.454 216.318C267.987 224.736 281.925 224.736 283.458 216.318C285.394 205.699 287.336 195.075 289.272 184.456C283.5 183.675 277.722 182.893 271.95 182.112C273.098 192.357 274.24 202.603 275.389 212.848C276.525 223.016 288.803 224.483 292.711 215.193C295.88 207.659 299.049 200.12 302.224 192.586C297.311 193.884 292.399 195.177 287.486 196.476C289.483 198.478 291.479 200.486 293.475 202.489C293.932 198.929 294.395 195.364 294.852 191.804C292.417 194.305 289.982 196.801 287.553 199.302C279.634 207.437 292.092 219.925 300.023 211.772C302.458 209.271 304.887 206.77 307.322 204.274C309.782 201.749 311.044 196.68 308.699 193.59C305.392 189.225 304.124 187.559 299.957 184.006C294.497 179.358 287.865 181.613 285.22 187.896C282.051 195.436 278.882 202.97 275.707 210.503C281.48 211.285 287.252 212.067 293.03 212.848C291.882 202.603 290.733 192.357 289.591 182.112C288.587 173.141 274.216 169.106 272.268 179.766C270.332 190.385 268.39 201.009 266.454 211.628C272.124 211.628 277.788 211.628 283.458 211.628C281.552 201.13 279.64 190.638 277.734 180.139C275.858 169.816 261.091 173.147 260.411 182.484C259.034 201.406 260.543 218.639 264.921 237.092C266.201 242.473 273.188 245.383 277.872 242.359C296.151 230.568 310.858 216.787 324.134 199.572C326.335 196.722 325.445 191.179 322.757 188.888C306.114 174.716 288.725 165.787 267.326 161.211C261.944 160.063 255.95 163.695 256.166 169.713C256.539 180.344 256.918 190.968 257.29 201.599C260.231 198.658 263.171 195.718 266.105 192.778C186.154 187.908 145.153 279.788 200.242 336.993C208.136 345.188 220.595 332.706 212.718 324.522Z" fill="currentColor"/>
</g>
</svg>
