<svg preserveAspectRatio="none" width="100%" height="100%" overflow="visible" style="display: block;" viewBox="0 0 500 500" fill="none" xmlns="http://www.w3.org/2000/svg">
<g id="Arrow 16">
<rect width="500" height="500" fill="white"/>
<path id="Arrow 16_2" d="M340.68 257.039C339.341 235.473 313.112 213.399 297.202 203.987C293.801 201.975 288.749 203.122 286.845 206.668C281.588 216.47 284.136 227.527 281.755 237.969C280.923 241.609 279.901 245.205 278.835 248.794C267.201 248.865 255.563 249.134 243.938 249.453C229.435 249.854 214.946 250.782 200.555 252.656C186.873 254.435 174.145 259.299 160.667 261.721C157.962 262.209 158.824 266.044 161.284 266.212C167.733 266.653 173.545 265.422 179.875 264.402C187.681 263.144 195.656 262.623 203.536 262.014C217.47 260.938 231.456 260.763 245.424 261.025C255.314 261.21 265.214 261.422 275.104 261.768C273.769 266.939 272.73 272.17 272.451 277.562C272.052 285.205 274.134 293.789 282.405 296.336C289.965 298.664 298.108 294.344 304.864 291.512C314.577 287.442 325.581 285.326 332.991 277.343C338.946 270.925 341.113 264.009 340.68 257.039Z" fill="currentColor"/>
</g>
</svg>
