<svg preserveAspectRatio="none" width="100%" height="100%" overflow="visible" style="display: block;" viewBox="0 0 500 500" fill="none" xmlns="http://www.w3.org/2000/svg">
<g id="Arrow 17">
<rect width="500" height="500" fill="white"/>
<path id="Arrow 17_2" d="M389.994 236.065C389.125 224.475 378.013 218.713 368.37 214.653C362.399 212.141 356.284 210.027 350.835 206.48C344.42 202.3 338.866 197.354 331.906 193.986C327.262 191.738 320.204 193.282 319.084 199.152C317.183 209.1 319.753 218.189 323.271 227.504C324.954 231.967 326.863 236.385 328.348 240.918C328.701 241.997 328.971 243.091 329.238 244.185C325.649 243.78 319.295 246.772 315.845 247.613C309.193 249.236 302.56 250.922 295.939 252.664C283.823 255.85 271.756 259.214 259.712 262.66C235.488 269.59 211.455 277.213 187.126 283.774C174.875 287.075 162.542 290.083 150.242 293.194C138.355 296.201 123.665 303.005 111.38 301.025C108.919 300.626 108.024 303.812 110.354 304.717C120.922 308.807 131.91 306.47 142.752 304.866C157.69 302.651 172.459 300.243 187.22 297.02C215.766 290.786 243.932 283 272.29 275.996C286.127 272.575 300.001 269.296 313.936 266.289C321.181 264.726 331.376 264.399 338.798 260.911C339.881 270.164 340.775 280.294 347.479 287.306C350.553 290.522 357.299 291.05 360.275 287.306C371.388 273.316 391.452 255.556 389.994 236.065Z" fill="currentColor"/>
</g>
</svg>
