<svg preserveAspectRatio="none" width="100%" height="100%" overflow="visible" style="display: block;" viewBox="0 0 500 500" fill="none" xmlns="http://www.w3.org/2000/svg">
<g id="Arrow 24">
<path id="Arrow 24_2" d="M302.35 183.177C296.401 176.857 289.006 172.23 282.674 166.332C278.489 162.435 274.749 158.062 271.34 153.445C278.347 150.398 288.957 145.846 287.952 137.962C286.956 130.158 277.03 124.787 271.062 121.145C264.154 116.928 256.926 113.374 249.721 109.715C247.051 108.357 243.965 108.984 242.239 111.163C240.756 111.439 239.524 112.46 239.014 114.048C236.023 123.353 235.752 133.095 234.157 142.67C232.675 151.579 230.019 160.292 229.657 169.369C229.524 172.685 232.866 174.718 235.826 174.068C242.518 172.601 247.857 166.486 253.618 163.009C255.814 161.683 258.019 160.364 260.244 159.087C263.489 164.439 267.193 169.574 271.517 174.024C276.975 179.64 283.585 184.195 289.705 189.049C296.19 194.194 302.312 199.526 297.194 207.923C294.093 213.008 289.646 217.258 285.162 221.126C277.055 228.116 267.913 233.841 258.798 239.406C240.38 250.65 220.366 261.226 205.925 277.656C190.715 294.96 185.397 317.82 191.437 340.131C198.521 366.304 221.59 394.261 251.339 391.047C254.588 390.695 254.692 386.138 251.339 385.911C224.536 384.107 205.377 359.248 200.025 334.502C195.266 312.506 203.85 292.404 220.055 277.635C236.163 262.952 256.199 253.356 274.317 241.499C283.123 235.734 291.645 229.429 298.985 221.852C303.831 216.85 308.858 211.064 310.288 204.029C311.946 195.875 307.744 188.905 302.35 183.177ZM240.102 159.341C240.246 159.515 240.399 159.674 240.564 159.818C240.36 159.979 240.161 160.146 239.962 160.311C240.009 159.989 240.053 159.665 240.102 159.341Z" fill="currentColor"/>
</g>
</svg>
